<?xml version="1.0" standalone="no"?>
<!DOCTYPE svg PUBLIC "-//W3C//DTD SVG 20010904//EN"
 "http://www.w3.org/TR/2001/REC-SVG-20010904/DTD/svg10.dtd">
<svg version="1.0" xmlns="http://www.w3.org/2000/svg"
 width="300.000000pt" height="474.000000pt" viewBox="0 0 300.000000 474.000000"
 preserveAspectRatio="xMidYMid meet">

<g transform="translate(0.000000,474.000000) scale(0.100000,-0.100000)"
fill="#000000" stroke="none">
<path d="M1580 4563 c-60 -11 -225 -55 -292 -79 -94 -34 -287 -129 -374 -186
-371 -240 -653 -642 -759 -1080 -38 -157 -42 -148 69 -148 99 0 106 3 106 50
0 46 76 266 130 375 129 264 300 464 530 620 156 106 402 211 573 245 l57 11
0 100 c0 54 -3 98 -7 98 -5 -1 -19 -4 -33 -6z"/>
<path d="M1530 4095 c-233 -66 -419 -175 -587 -343 -175 -175 -283 -362 -352
-610 l-20 -72 73 0 74 0 11 48 c7 26 33 96 58 157 136 321 403 562 746 671
l87 28 0 68 c0 77 -2 78 -90 53z"/>
<path d="M1525 3735 c-178 -74 -299 -160 -403 -288 -77 -95 -135 -194 -172
-295 l-30 -82 54 0 53 0 21 58 c80 216 286 423 506 508 l66 26 0 49 c0 58 -6
60 -95 24z"/>
<path d="M1565 3414 c-127 -65 -249 -192 -303 -316 -11 -27 -11 -28 22 -28 30
0 37 6 69 58 48 77 136 166 204 204 59 33 66 43 61 82 l-3 25 -50 -25z"/>
<path d="M1725 3267 c-114 -29 -232 -123 -279 -222 -90 -190 -31 -409 144
-530 l40 -28 0 -663 c0 -444 4 -672 11 -691 17 -46 60 -83 116 -99 48 -14 58
-14 106 0 53 15 83 40 108 86 10 20 13 164 13 694 l1 669 50 32 c68 43 111 95
153 183 32 68 35 82 35 161 -1 138 -58 251 -171 338 -86 66 -226 96 -327 70z
m250 -72 c75 -36 139 -101 173 -173 24 -50 27 -69 27 -162 0 -95 -3 -111 -28
-162 -26 -52 -125 -158 -148 -158 -5 0 -9 19 -9 43 0 34 6 49 26 68 72 67 107
177 85 273 -34 154 -189 257 -339 227 -104 -21 -173 -77 -220 -180 -21 -45
-24 -64 -20 -125 5 -78 28 -132 77 -185 24 -25 31 -42 31 -72 0 -50 -14 -50
-68 2 -119 114 -150 275 -83 424 67 147 184 218 352 212 70 -2 96 -8 144 -32z"/>
<path d="M1277 2285 c-22 -7 -50 -23 -63 -36 l-24 -22 0 -567 c0 -636 -7 -581
75 -616 83 -35 235 -9 264 44 8 14 11 196 11 577 l0 557 -28 28 c-48 48 -155
64 -235 35z"/>
<path d="M831 2115 c-24 -7 -54 -24 -67 -36 l-24 -22 0 -482 0 -482 23 -21
c34 -32 75 -44 152 -44 77 -1 149 22 165 53 6 11 10 207 10 498 0 549 7 506
-91 535 -63 19 -109 19 -168 1z"/>
<path d="M2332 1817 c-209 -209 -292 -299 -292 -315 0 -84 145 -232 226 -232
21 0 607 578 612 605 11 49 -65 154 -147 207 -85 54 -72 62 -399 -265z"/>
<path d="M387 1811 c-21 -4 -49 -14 -62 -21 l-25 -14 2 -355 3 -356 39 -19
c53 -26 192 -26 254 -1 39 16 42 20 42 54 0 20 2 99 4 176 2 77 1 223 -2 324
l-5 183 -34 14 c-40 17 -164 26 -216 15z"/>
<path d="M120 510 l0 -332 218 4 c210 3 218 4 262 28 24 14 57 43 72 65 39 55
62 167 55 270 -10 140 -50 215 -140 262 -51 27 -56 28 -259 31 l-208 4 0 -332z
m374 206 c18 -7 43 -29 54 -48 44 -71 46 -240 4 -313 -30 -52 -72 -66 -192
-63 l-105 3 -3 205 c-1 112 0 210 2 217 7 18 196 18 240 -1z"/>
<path d="M1427 833 c-9 -8 -9 -600 -1 -630 6 -21 12 -23 70 -23 l64 0 0 330 0
330 -63 0 c-35 0 -67 -3 -70 -7z"/>
<path d="M1870 831 c-135 -42 -192 -136 -194 -321 -1 -168 46 -263 153 -309
46 -20 65 -21 213 -19 l163 3 0 50 0 50 -145 5 c-131 5 -148 7 -177 28 -46 33
-67 108 -61 221 8 162 46 190 251 191 l127 0 0 55 0 55 -152 -1 c-84 0 -164
-4 -178 -8z"/>
<path d="M2330 785 l0 -55 105 0 105 0 0 -275 0 -275 65 0 65 0 2 273 3 272
110 5 110 5 3 53 3 52 -285 0 -286 0 0 -55z"/>
<path d="M997 660 c-122 -31 -186 -114 -187 -241 0 -106 39 -176 125 -222 57
-31 192 -31 252 1 131 69 166 260 69 386 -48 63 -168 98 -259 76z m126 -101
c61 -28 85 -165 42 -239 -34 -57 -120 -73 -180 -34 -71 46 -64 237 9 273 28
13 100 14 129 0z"/>
</g>
</svg>
