<svg id="svg" version="1.1" xmlns="http://www.w3.org/2000/svg" xmlns:xlink="http://www.w3.org/1999/xlink" width="400" height="632" viewBox="0, 0, 400,632"><g id="svgg"><path id="path0" d="M213.000 23.811 C 212.120 24.101,210.500 24.360,209.400 24.387 C 208.300 24.413,206.680 24.695,205.800 25.012 C 204.920 25.329,203.835 25.591,203.388 25.594 C 202.942 25.597,200.512 26.148,197.988 26.818 C 195.465 27.487,192.500 28.187,191.400 28.374 C 190.300 28.560,188.860 28.894,188.200 29.117 C 187.540 29.340,184.840 30.185,182.200 30.995 C 179.560 31.805,176.950 32.656,176.400 32.885 C 175.850 33.115,174.860 33.448,174.200 33.624 C 172.577 34.058,169.676 35.108,168.140 35.818 C 167.446 36.138,166.664 36.400,166.401 36.400 C 166.138 36.400,165.446 36.660,164.862 36.977 C 163.388 37.778,157.365 40.400,156.999 40.400 C 156.834 40.400,154.516 41.462,151.849 42.761 C 149.182 44.059,145.830 45.674,144.400 46.350 C 142.970 47.026,140.180 48.485,138.200 49.593 C 136.220 50.701,134.150 51.823,133.600 52.087 C 133.050 52.350,131.340 53.382,129.800 54.380 C 128.260 55.378,126.697 56.376,126.326 56.597 C 125.955 56.819,124.155 57.894,122.326 58.987 C 120.497 60.079,118.791 61.175,118.537 61.421 C 118.282 61.668,117.112 62.478,115.937 63.222 C 114.761 63.965,113.710 64.670,113.600 64.787 C 113.490 64.904,111.263 66.606,108.651 68.569 C 106.040 70.532,103.610 72.431,103.251 72.790 C 102.893 73.149,101.340 74.422,99.800 75.619 C 94.586 79.673,74.536 99.460,72.002 103.053 C 71.218 104.165,67.361 108.623,65.700 110.338 C 64.985 111.076,64.396 111.887,64.391 112.140 C 64.386 112.393,63.755 113.320,62.990 114.200 C 62.225 115.080,61.376 116.064,61.103 116.387 C 60.355 117.271,58.800 119.607,58.800 119.846 C 58.800 119.962,58.575 120.302,58.300 120.601 C 58.025 120.900,57.207 122.012,56.483 123.072 C 55.758 124.132,54.368 126.170,53.393 127.600 C 52.419 129.030,51.075 131.190,50.408 132.400 C 49.740 133.610,49.022 134.870,48.813 135.200 C 46.058 139.535,43.074 145.021,38.914 153.400 C 34.314 162.663,34.090 163.149,32.551 167.200 C 31.758 169.290,30.874 171.540,30.587 172.200 C 28.913 176.052,28.454 177.244,28.203 178.385 C 28.050 179.083,27.673 180.137,27.365 180.727 C 27.057 181.317,26.804 182.093,26.802 182.451 C 26.801 182.809,26.292 184.429,25.670 186.051 C 24.134 190.061,23.308 192.694,22.988 194.600 C 22.840 195.480,22.214 198.090,21.596 200.400 C 20.318 205.178,19.791 207.416,19.004 211.400 C 18.700 212.940,18.268 215.010,18.043 216.000 C 17.545 218.197,17.476 222.276,17.933 222.559 C 18.117 222.672,23.202 222.883,29.233 223.028 C 41.638 223.325,42.206 223.239,42.624 221.014 C 42.771 220.231,43.036 219.501,43.214 219.391 C 43.392 219.281,43.657 217.978,43.804 216.496 C 44.116 213.347,46.629 202.811,47.205 202.235 C 47.422 202.018,47.600 201.419,47.600 200.904 C 47.600 200.389,48.230 198.105,49.000 195.827 C 49.770 193.550,50.401 191.442,50.402 191.143 C 50.404 190.845,50.652 190.126,50.955 189.546 C 51.258 188.966,51.908 187.190,52.400 185.600 C 52.892 184.010,53.542 182.234,53.845 181.654 C 54.148 181.074,54.396 180.319,54.398 179.976 C 54.399 179.634,54.664 179.004,54.987 178.576 C 55.310 178.149,55.580 177.585,55.587 177.322 C 55.610 176.482,64.501 158.135,66.599 154.600 C 67.121 153.720,68.034 152.100,68.628 151.000 C 70.572 147.398,74.893 140.695,78.581 135.562 C 85.134 126.439,86.807 124.311,90.800 120.015 C 91.130 119.660,92.692 117.847,94.272 115.985 C 100.075 109.146,115.109 95.222,122.916 89.458 C 125.162 87.799,127.540 86.015,128.200 85.493 C 129.373 84.566,134.406 81.157,138.800 78.314 C 140.010 77.531,141.990 76.355,143.200 75.700 C 144.410 75.045,146.808 73.719,148.529 72.754 C 153.643 69.887,155.768 68.814,156.342 68.807 C 156.640 68.803,157.684 68.260,158.662 67.600 C 159.640 66.940,160.535 66.400,160.651 66.400 C 160.904 66.400,166.554 63.787,168.062 62.973 C 168.646 62.658,169.346 62.400,169.618 62.400 C 169.890 62.400,170.852 62.056,171.756 61.637 C 175.068 60.099,176.334 59.600,176.928 59.600 C 177.262 59.600,178.045 59.350,178.668 59.044 C 180.473 58.159,184.738 56.790,198.600 52.649 C 199.700 52.321,201.577 51.923,202.772 51.765 C 203.967 51.607,205.407 51.236,205.972 50.941 C 206.537 50.646,207.630 50.397,208.400 50.388 C 209.741 50.372,213.494 49.577,214.843 49.022 C 216.302 48.423,216.495 23.103,215.040 23.242 C 214.798 23.265,213.880 23.521,213.000 23.811 M211.600 84.273 C 211.050 84.363,210.129 84.621,209.552 84.845 C 208.976 85.070,207.446 85.494,206.152 85.787 C 204.859 86.080,202.810 86.625,201.600 86.997 C 200.390 87.370,198.590 87.925,197.600 88.230 C 196.610 88.536,194.000 89.432,191.800 90.222 C 189.600 91.012,187.440 91.762,187.000 91.888 C 184.552 92.591,170.244 98.939,169.600 99.608 C 169.490 99.722,167.870 100.603,166.000 101.565 C 164.130 102.527,161.387 104.104,159.905 105.068 C 158.423 106.032,156.896 106.942,156.512 107.089 C 156.128 107.237,154.705 108.132,153.351 109.079 C 151.997 110.025,150.776 110.800,150.640 110.800 C 150.298 110.800,139.601 119.214,135.960 122.346 C 131.502 126.181,119.553 138.085,116.284 141.948 C 114.698 143.822,112.977 145.815,112.460 146.378 C 111.943 146.940,110.693 148.525,109.683 149.900 C 108.672 151.275,107.700 152.400,107.523 152.400 C 107.345 152.400,107.200 152.659,107.200 152.976 C 107.200 153.293,106.332 154.688,105.271 156.076 C 104.210 157.464,102.815 159.467,102.171 160.526 C 101.527 161.585,100.816 162.755,100.592 163.126 C 100.367 163.497,99.672 164.594,99.047 165.563 C 93.993 173.403,85.641 191.522,82.991 200.400 C 82.186 203.096,81.546 204.886,80.990 206.000 C 80.715 206.550,80.359 207.810,80.199 208.800 C 80.038 209.790,79.747 210.905,79.552 211.277 C 78.804 212.702,77.162 222.122,77.588 222.548 C 78.098 223.058,89.357 223.405,92.945 223.021 L 95.521 222.745 95.782 221.272 C 95.926 220.463,96.287 219.080,96.585 218.200 C 96.882 217.320,97.524 215.160,98.010 213.400 C 98.496 211.640,99.053 210.029,99.247 209.820 C 99.441 209.611,99.601 208.981,99.602 208.420 C 99.604 207.859,99.874 206.884,100.202 206.254 C 100.531 205.624,100.800 204.901,100.800 204.648 C 100.800 204.395,101.160 203.516,101.600 202.696 C 102.040 201.875,102.400 200.877,102.400 200.478 C 102.400 200.079,102.664 199.404,102.987 198.976 C 103.310 198.549,103.580 197.921,103.587 197.581 C 103.594 197.240,104.230 195.732,105.000 194.228 C 105.770 192.725,106.400 191.338,106.400 191.147 C 106.400 189.624,115.747 172.797,119.183 168.135 C 125.645 159.369,126.924 157.670,127.905 156.553 C 128.507 155.867,129.810 154.345,130.800 153.172 C 134.577 148.694,141.046 142.140,145.427 138.353 C 150.486 133.980,151.922 132.827,155.540 130.234 C 157.663 128.713,159.494 127.329,159.609 127.158 C 159.995 126.585,168.970 120.800,169.474 120.800 C 169.589 120.800,170.430 120.299,171.342 119.687 C 172.254 119.075,174.440 117.860,176.200 116.987 C 177.960 116.114,179.638 115.175,179.929 114.900 C 180.219 114.625,180.669 114.400,180.929 114.401 C 181.353 114.402,183.051 113.652,186.062 112.135 C 186.646 111.841,187.501 111.600,187.962 111.600 C 188.423 111.600,188.800 111.423,188.800 111.208 C 188.800 110.992,189.291 110.692,189.890 110.542 C 190.490 110.391,192.097 109.762,193.461 109.143 C 194.825 108.525,196.717 107.895,197.665 107.743 C 198.614 107.592,199.630 107.227,199.923 106.934 C 200.217 106.640,200.849 106.399,201.329 106.398 C 201.808 106.396,202.731 106.118,203.381 105.779 C 204.030 105.441,206.010 104.803,207.781 104.363 C 209.551 103.922,212.010 103.257,213.245 102.885 L 215.490 102.209 215.745 98.042 C 216.066 92.798,216.064 88.795,215.741 86.100 L 215.489 84.000 214.044 84.054 C 213.250 84.084,212.150 84.183,211.600 84.273 M209.600 131.973 C 206.170 133.100,203.140 134.262,200.200 135.576 C 199.320 135.970,197.970 136.573,197.200 136.918 C 192.929 138.827,184.154 143.315,182.135 144.623 C 175.678 148.804,173.161 150.491,172.322 151.201 C 171.815 151.629,169.600 153.360,167.400 155.046 C 163.350 158.152,152.769 168.462,150.617 171.400 C 149.973 172.280,149.255 173.180,149.023 173.400 C 147.612 174.735,142.044 182.236,140.208 185.276 C 138.987 187.298,134.396 195.172,133.840 196.200 C 133.482 196.860,133.020 197.670,132.812 198.000 C 131.700 199.768,126.288 212.864,125.762 215.060 C 125.612 215.687,125.354 216.380,125.188 216.600 C 124.567 217.422,123.490 222.049,123.841 222.383 C 124.145 222.671,133.272 223.032,135.826 222.857 C 136.682 222.798,138.044 220.074,138.601 217.305 C 138.744 216.592,139.028 215.906,139.231 215.781 C 139.434 215.655,139.600 215.276,139.600 214.937 C 139.600 214.231,140.246 212.650,142.272 208.400 C 144.805 203.085,145.826 201.138,147.621 198.200 C 148.158 197.320,148.869 196.115,149.199 195.522 C 150.512 193.166,153.120 189.348,155.400 186.443 C 156.720 184.760,158.340 182.587,159.000 181.613 C 161.135 178.462,172.743 167.311,178.000 163.362 C 180.750 161.297,183.180 159.464,183.400 159.291 C 184.062 158.768,188.013 156.345,189.400 155.611 C 189.840 155.379,190.740 154.837,191.400 154.408 C 192.060 153.979,193.590 153.161,194.800 152.590 C 196.010 152.019,197.270 151.389,197.600 151.191 C 197.930 150.993,199.550 150.191,201.200 149.408 C 202.850 148.624,204.866 147.627,205.679 147.192 C 206.493 146.756,207.528 146.400,207.981 146.400 C 208.433 146.400,209.475 146.040,210.296 145.600 C 211.116 145.160,212.010 144.800,212.281 144.800 C 215.578 144.800,216.595 141.409,215.743 133.259 C 215.431 130.277,215.019 130.190,209.600 131.973 M210.400 176.132 C 206.425 178.144,205.655 178.583,203.218 180.225 C 202.218 180.898,201.130 181.571,200.800 181.718 C 200.249 181.965,197.129 184.218,192.754 187.527 C 190.261 189.412,184.141 195.453,181.901 198.239 C 176.383 205.102,175.389 206.439,173.408 209.665 C 172.105 211.787,167.200 221.703,167.200 222.216 C 167.200 222.733,167.837 222.810,171.300 222.714 L 175.400 222.600 177.666 218.800 C 178.912 216.710,180.088 214.820,180.277 214.600 C 180.467 214.380,181.145 213.303,181.783 212.206 C 182.421 211.110,183.097 210.030,183.284 209.806 C 183.471 209.583,184.294 208.485,185.112 207.367 C 186.425 205.573,188.991 202.752,193.600 198.033 C 194.370 197.245,195.872 195.880,196.938 195.000 C 198.004 194.120,199.354 192.990,199.938 192.489 C 200.522 191.987,201.180 191.445,201.400 191.283 C 204.608 188.920,206.027 187.962,206.832 187.613 C 208.191 187.025,211.899 184.911,213.800 183.641 L 215.400 182.572 215.514 178.486 C 215.652 173.529,215.596 173.503,210.400 176.132 M235.200 195.800 C 234.430 196.097,233.276 196.353,232.635 196.370 C 231.560 196.398,230.579 196.643,225.000 198.278 C 223.166 198.815,220.277 200.004,218.800 200.830 C 218.470 201.014,217.216 201.631,216.013 202.201 C 214.809 202.770,213.729 203.370,213.613 203.534 C 213.496 203.698,212.094 204.684,210.499 205.725 C 207.579 207.631,198.800 216.073,198.800 216.976 C 198.800 217.242,198.354 217.879,197.809 218.391 C 195.668 220.403,191.006 229.785,189.773 234.563 C 189.484 235.683,189.061 237.320,188.833 238.200 C 186.179 248.430,186.993 259.284,191.263 270.600 C 192.459 273.769,195.050 279.214,195.545 279.600 C 195.687 279.710,196.342 280.608,197.001 281.595 C 198.236 283.443,199.046 284.451,201.800 287.567 C 202.680 288.563,203.580 289.614,203.800 289.902 C 204.420 290.715,210.306 295.209,213.200 297.080 C 216.901 299.472,217.457 300.140,217.745 302.537 C 217.882 303.672,217.997 343.660,218.002 391.400 C 218.012 485.624,217.859 478.844,220.091 483.600 C 225.298 494.695,245.640 498.732,256.000 490.727 C 258.958 488.441,260.928 486.064,262.511 482.869 L 264.200 479.461 264.400 390.430 C 264.510 341.464,264.740 301.130,264.911 300.800 C 265.082 300.470,267.152 299.081,269.511 297.714 C 271.870 296.347,274.520 294.572,275.400 293.770 C 279.976 289.601,282.400 287.229,282.400 286.921 C 282.400 286.733,282.898 286.133,283.507 285.589 C 285.078 284.185,288.230 279.633,289.665 276.697 C 290.336 275.324,291.291 273.390,291.787 272.400 C 292.284 271.410,293.181 269.160,293.781 267.400 C 294.382 265.640,295.037 264.029,295.237 263.820 C 295.436 263.611,295.600 262.582,295.600 261.534 C 295.600 260.485,295.882 257.603,296.228 255.128 C 296.749 251.389,296.774 250.084,296.376 247.414 C 296.113 245.646,295.820 242.850,295.725 241.200 C 295.631 239.550,295.315 237.660,295.024 237.000 C 294.732 236.340,294.068 234.450,293.547 232.800 C 293.026 231.150,292.175 228.990,291.655 228.000 C 291.135 227.010,290.248 225.300,289.683 224.200 C 286.616 218.225,277.980 208.583,272.563 205.086 C 266.326 201.059,254.881 196.400,251.228 196.400 C 250.794 196.400,249.402 196.130,248.135 195.800 C 245.211 195.038,237.178 195.038,235.200 195.800 M252.800 201.773 C 254.450 202.161,256.340 202.715,257.000 203.006 C 257.660 203.296,258.740 203.652,259.400 203.798 C 266.790 205.427,278.362 214.803,283.840 223.600 C 290.520 234.327,293.141 249.087,290.410 260.600 C 290.202 261.480,289.915 262.830,289.773 263.600 C 288.258 271.844,280.540 283.802,273.232 289.231 C 271.784 290.307,270.410 291.344,270.177 291.537 C 267.476 293.776,265.484 293.986,264.760 292.110 C 264.130 290.480,264.450 282.304,265.177 281.428 C 266.111 280.302,265.787 266.065,264.735 262.045 C 263.589 257.658,262.969 256.578,259.793 253.424 C 255.412 249.074,254.459 248.523,247.236 246.174 C 243.691 245.020,234.107 245.675,232.200 247.202 C 231.980 247.378,231.022 247.730,230.072 247.984 C 225.707 249.151,219.978 255.034,218.013 260.367 C 216.704 263.918,216.054 278.405,217.119 280.295 C 217.473 280.924,217.590 282.824,217.511 286.695 L 217.400 292.200 216.104 292.325 C 211.737 292.746,195.600 273.923,195.600 268.406 C 195.600 268.051,195.410 267.570,195.177 267.337 C 194.528 266.688,193.371 261.935,192.363 255.777 C 191.417 249.997,192.819 238.705,195.035 234.268 C 195.346 233.645,195.600 232.821,195.600 232.438 C 195.600 231.461,198.468 226.027,201.067 222.080 C 206.348 214.062,218.083 205.026,224.892 203.735 C 225.611 203.599,226.387 203.342,226.616 203.165 C 226.845 202.987,228.465 202.536,230.216 202.163 C 231.967 201.789,234.030 201.342,234.800 201.169 C 237.354 200.594,249.523 201.003,252.800 201.773 M175.800 325.978 C 172.004 326.586,166.917 328.406,164.647 329.967 C 162.304 331.579,159.636 334.253,159.185 335.441 C 158.674 336.784,158.660 483.980,159.171 485.323 C 163.970 497.947,198.412 498.054,204.100 485.462 C 205.142 483.156,205.191 337.117,204.151 335.105 C 203.382 333.618,199.740 330.106,198.600 329.753 C 198.160 329.617,197.530 329.275,197.200 328.993 C 194.377 326.582,182.488 324.907,175.800 325.978 M114.000 349.396 C 110.738 350.009,107.195 351.153,106.369 351.860 C 106.021 352.157,105.571 352.412,105.369 352.427 C 104.490 352.490,101.300 355.208,100.200 356.830 L 99.000 358.600 98.878 420.400 C 98.811 454.390,98.867 483.133,99.003 484.272 C 100.371 495.725,132.067 499.139,142.896 489.001 C 145.617 486.453,145.400 492.255,145.400 422.200 L 145.400 359.000 144.454 357.150 C 143.385 355.060,138.374 351.404,135.946 350.943 C 135.206 350.802,134.312 350.541,133.959 350.361 C 131.074 348.893,119.625 348.340,114.000 349.396 M351.871 350.859 C 349.956 351.140,349.799 351.286,330.977 370.271 C 320.547 380.792,303.317 398.139,292.690 408.820 C 273.914 427.691,272.000 429.846,272.000 432.118 C 272.000 434.360,275.447 442.985,276.748 444.000 C 276.966 444.170,278.179 445.753,279.788 447.967 C 281.408 450.197,287.944 456.236,290.600 457.956 C 291.480 458.526,292.290 459.104,292.400 459.240 C 293.090 460.093,300.212 462.400,302.157 462.400 C 304.918 462.400,306.222 461.424,313.600 453.837 C 316.570 450.782,323.937 443.405,329.972 437.442 C 336.006 431.479,342.126 425.347,343.572 423.815 C 345.017 422.284,354.390 412.789,364.400 402.716 C 374.410 392.642,382.825 384.138,383.100 383.817 C 383.821 382.976,383.737 377.615,382.987 376.624 C 382.664 376.196,382.400 375.531,382.400 375.145 C 382.400 371.859,372.884 360.757,365.613 355.562 C 359.856 351.447,356.255 350.215,351.871 350.859 M58.600 389.999 C 57.500 390.157,54.957 390.491,52.949 390.742 C 50.941 390.992,48.781 391.466,48.149 391.796 C 47.517 392.125,46.640 392.397,46.200 392.400 C 44.900 392.407,40.885 395.229,40.355 396.508 C 39.825 397.789,39.530 484.812,40.046 487.776 C 40.197 488.643,40.653 489.592,41.060 489.884 C 41.467 490.176,42.070 490.637,42.400 490.908 C 47.146 494.810,65.718 496.421,75.126 493.747 C 76.296 493.414,78.276 492.877,79.526 492.553 C 82.183 491.864,84.495 490.388,85.142 488.967 C 85.804 487.515,85.796 397.516,85.135 396.274 C 83.864 393.888,78.087 391.430,72.213 390.775 C 70.446 390.578,68.280 390.237,67.400 390.018 C 65.613 389.573,61.635 389.564,58.600 389.999 M16.643 521.033 C 16.509 521.381,16.400 541.001,16.400 564.633 L 16.400 607.600 41.900 607.583 C 56.582 607.573,68.164 607.402,69.200 607.182 C 70.190 606.971,71.902 606.635,73.004 606.436 C 74.106 606.236,75.546 605.803,76.204 605.474 C 76.862 605.144,77.940 604.658,78.600 604.395 C 82.928 602.665,86.759 599.484,89.430 595.400 C 90.294 594.080,91.135 592.940,91.300 592.867 C 91.465 592.793,91.600 592.558,91.600 592.345 C 91.600 592.131,91.943 591.201,92.361 590.278 C 92.780 589.355,93.514 587.250,93.992 585.600 C 94.471 583.950,95.017 582.240,95.206 581.800 C 95.395 581.360,95.670 579.560,95.817 577.800 C 95.965 576.040,96.333 573.430,96.636 572.000 C 97.350 568.624,97.353 560.075,96.641 556.335 C 96.334 554.721,95.950 551.980,95.789 550.245 C 95.628 548.510,95.250 546.620,94.950 546.045 C 94.650 545.470,94.404 544.774,94.402 544.497 C 94.380 539.963,86.563 528.950,81.442 526.238 C 80.365 525.668,79.285 525.053,79.042 524.871 C 78.799 524.689,77.430 524.043,76.000 523.434 C 73.655 522.437,71.490 521.866,66.000 520.798 C 62.403 520.098,16.918 520.314,16.643 521.033 M62.200 534.971 C 69.979 537.132,75.408 542.907,76.515 550.200 C 76.615 550.860,77.020 552.570,77.414 554.000 C 78.450 557.756,78.457 570.270,77.425 574.000 C 77.030 575.430,76.564 577.410,76.391 578.400 C 75.540 583.263,71.780 588.904,68.030 590.945 C 63.403 593.464,61.789 593.703,48.120 593.898 L 35.640 594.076 34.620 593.056 L 33.600 592.036 33.600 564.107 C 33.600 533.562,33.514 534.676,35.904 534.263 C 38.866 533.751,59.840 534.315,62.200 534.971 M134.101 544.216 C 127.258 545.467,121.040 548.580,116.885 552.834 C 114.520 555.255,110.800 560.614,110.800 561.599 C 110.800 561.952,110.637 562.411,110.439 562.620 C 108.295 564.875,107.293 580.458,108.949 585.800 C 111.936 595.444,116.404 601.347,123.217 604.653 C 128.064 607.006,129.400 607.514,131.384 607.761 C 132.475 607.897,133.546 608.186,133.764 608.404 C 134.265 608.905,148.268 608.937,148.577 608.437 C 148.700 608.238,149.746 607.957,150.900 607.813 C 152.055 607.669,153.540 607.321,154.200 607.040 C 157.284 605.728,161.832 603.350,162.120 602.900 C 162.296 602.625,162.661 602.400,162.932 602.400 C 164.597 602.400,170.252 594.950,172.345 590.000 C 175.391 582.795,175.419 569.859,172.403 563.000 C 172.210 562.560,171.681 561.324,171.228 560.253 C 169.507 556.189,164.306 550.196,161.052 548.529 C 160.363 548.177,159.710 547.761,159.600 547.605 C 159.334 547.226,154.612 545.379,152.600 544.866 C 147.310 543.516,139.444 543.240,134.101 544.216 M145.783 555.822 C 155.208 557.019,160.726 568.875,158.154 582.400 C 157.569 585.478,156.280 589.087,155.583 589.600 C 155.434 589.710,155.020 590.369,154.664 591.064 C 151.743 596.766,140.294 598.934,133.149 595.137 C 127.000 591.870,124.384 586.223,124.408 576.271 C 124.422 570.597,126.091 562.800,127.293 562.800 C 127.462 562.800,127.600 562.526,127.600 562.191 C 127.600 561.124,130.810 558.053,133.016 557.010 C 136.317 555.448,140.083 555.098,145.783 555.822 " stroke="none" fill="#0a7546" fill-rule="evenodd"></path><path id="path1" d="M0.000 316.000 L 0.000 632.000 200.000 632.000 L 400.000 632.000 400.000 316.000 L 400.000 0.000 200.000 0.000 L 0.000 0.000 0.000 316.000 M216.800 22.791 C 217.309 23.113,217.417 25.129,217.515 36.101 L 217.631 49.032 216.676 49.928 C 216.080 50.488,214.836 50.975,213.361 51.225 C 209.014 51.961,205.424 52.744,202.400 53.615 C 200.750 54.090,198.410 54.724,197.200 55.024 C 195.990 55.324,193.650 55.950,192.000 56.415 C 190.350 56.881,188.100 57.496,187.000 57.782 C 181.399 59.240,173.077 62.310,167.306 65.047 C 165.274 66.011,163.380 66.800,163.097 66.800 C 162.813 66.800,161.646 67.416,160.502 68.169 C 159.359 68.923,158.023 69.666,157.534 69.821 C 156.785 70.059,154.709 71.186,152.000 72.825 C 151.670 73.025,150.860 73.455,150.200 73.782 C 149.540 74.109,147.920 75.010,146.600 75.785 C 145.280 76.561,143.783 77.376,143.273 77.598 C 142.763 77.820,141.756 78.451,141.035 79.000 C 140.314 79.550,139.555 80.000,139.347 80.000 C 138.978 80.000,133.552 83.810,128.240 87.800 C 121.762 92.665,118.505 95.164,117.238 96.242 C 112.851 99.972,106.397 105.754,105.153 107.070 C 104.357 107.912,102.670 109.589,101.405 110.798 C 100.139 112.007,98.360 113.877,97.452 114.953 C 96.543 116.029,94.314 118.617,92.498 120.704 C 87.516 126.428,81.417 134.244,78.562 138.564 C 77.703 139.864,76.690 141.394,76.311 141.964 C 75.932 142.534,75.263 143.656,74.824 144.458 C 74.385 145.260,73.792 146.160,73.505 146.458 C 72.781 147.209,69.600 152.651,69.600 153.137 C 69.600 153.355,69.458 153.593,69.285 153.667 C 69.112 153.740,68.114 155.240,67.068 157.000 C 66.022 158.760,65.005 160.470,64.808 160.800 C 64.612 161.130,63.774 162.840,62.946 164.600 C 58.200 174.696,56.941 177.511,55.617 181.000 C 55.116 182.320,54.551 183.707,54.361 184.083 C 54.171 184.458,53.897 185.538,53.753 186.483 C 53.609 187.427,53.349 188.382,53.175 188.605 C 52.733 189.172,51.431 192.850,50.416 196.400 C 49.944 198.050,49.400 199.693,49.206 200.051 C 49.013 200.409,48.734 201.399,48.586 202.251 C 48.438 203.103,47.997 204.970,47.605 206.400 C 46.630 209.964,46.087 212.598,45.791 215.200 C 45.653 216.410,45.294 218.390,44.992 219.600 C 44.691 220.810,44.347 222.272,44.227 222.849 C 43.817 224.831,42.571 225.010,30.000 224.899 C 15.193 224.767,15.419 224.843,16.052 220.223 C 17.064 212.830,18.652 204.476,19.172 203.810 C 19.348 203.584,19.596 202.339,19.723 201.043 C 19.850 199.747,20.144 198.496,20.377 198.263 C 20.610 198.030,20.800 197.380,20.800 196.817 C 20.800 195.425,22.388 189.958,24.406 184.400 C 25.324 181.870,26.254 179.170,26.471 178.400 C 27.556 174.549,30.611 166.500,31.245 165.820 C 31.440 165.611,31.600 165.132,31.600 164.754 C 31.600 163.637,42.203 142.926,46.042 136.544 C 47.119 134.754,48.000 133.169,48.000 133.023 C 48.000 132.786,48.707 131.657,52.523 125.800 C 53.096 124.920,54.698 122.729,56.083 120.931 C 57.467 119.134,58.960 117.162,59.400 116.550 C 65.085 108.643,73.872 97.824,77.878 93.800 C 83.658 87.994,96.785 75.601,97.158 75.598 C 97.291 75.597,97.940 75.102,98.600 74.498 C 100.412 72.840,105.242 69.013,106.600 68.160 C 107.260 67.746,107.980 67.263,108.200 67.087 C 112.595 63.582,126.072 54.348,129.928 52.200 C 130.718 51.760,131.552 51.260,131.782 51.089 C 133.010 50.177,147.762 42.776,153.200 40.343 C 154.190 39.900,155.478 39.282,156.062 38.969 C 156.646 38.656,157.338 38.400,157.600 38.400 C 157.862 38.400,158.554 38.075,159.138 37.678 C 159.722 37.281,161.010 36.630,162.000 36.230 C 162.990 35.831,164.160 35.351,164.600 35.163 C 165.040 34.975,166.120 34.572,167.000 34.266 C 170.170 33.165,174.625 31.501,175.860 30.956 C 176.554 30.650,177.364 30.392,177.660 30.382 C 177.957 30.373,178.920 30.096,179.800 29.768 C 180.680 29.439,182.210 29.008,183.200 28.809 C 184.190 28.610,185.990 28.178,187.200 27.849 C 194.812 25.776,197.627 25.073,199.400 24.799 C 201.717 24.442,205.258 23.727,208.400 22.980 C 210.997 22.363,215.946 22.252,216.800 22.791 M217.294 82.960 C 217.456 83.202,217.591 87.644,217.594 92.830 L 217.600 102.261 216.621 103.180 C 216.083 103.686,214.958 104.238,214.121 104.407 C 212.600 104.715,208.368 105.849,204.600 106.959 C 203.500 107.283,201.610 107.931,200.400 108.400 C 199.190 108.869,197.390 109.490,196.400 109.781 C 195.410 110.072,193.970 110.537,193.200 110.815 C 192.430 111.094,191.620 111.383,191.400 111.458 C 191.180 111.533,190.730 111.750,190.400 111.941 C 188.697 112.922,187.225 113.600,186.798 113.600 C 184.927 113.600,166.424 124.082,161.169 128.120 C 159.393 129.484,156.548 131.590,154.847 132.800 C 148.190 137.534,137.131 147.910,132.889 153.400 C 131.869 154.720,130.549 156.340,129.955 157.000 C 126.940 160.352,124.751 163.030,123.178 165.294 C 119.503 170.582,116.400 175.225,116.400 175.436 C 116.400 175.557,115.887 176.408,115.260 177.328 C 113.879 179.353,110.214 186.226,109.803 187.561 C 109.640 188.089,108.988 189.402,108.354 190.478 C 107.719 191.555,107.200 192.615,107.200 192.834 C 107.200 193.054,106.635 194.441,105.944 195.917 C 104.273 199.489,101.600 206.255,101.600 206.914 C 101.600 207.203,101.431 207.611,101.224 207.820 C 101.017 208.029,100.570 209.460,100.231 211.000 C 96.877 226.215,97.606 225.565,84.427 225.079 C 74.973 224.731,74.720 224.509,76.146 217.817 C 76.476 216.267,76.916 214.190,77.125 213.200 C 77.830 209.853,78.875 206.202,79.239 205.820 C 79.437 205.611,79.600 205.188,79.600 204.880 C 79.600 204.573,79.865 203.754,80.188 203.060 C 80.512 202.367,81.216 200.540,81.753 199.000 C 82.290 197.460,83.200 194.940,83.775 193.400 C 84.349 191.860,85.249 189.340,85.774 187.800 C 86.299 186.260,87.554 183.329,88.564 181.286 C 89.574 179.244,90.400 177.421,90.400 177.235 C 90.400 177.050,90.652 176.689,90.961 176.433 C 91.269 176.177,91.630 175.537,91.761 175.011 C 91.893 174.485,92.676 172.954,93.501 171.608 C 94.325 170.262,95.450 168.314,96.000 167.279 C 96.952 165.489,99.654 161.281,100.674 160.000 C 102.609 157.571,106.309 152.318,107.015 151.000 C 108.515 148.197,116.005 139.152,120.596 134.600 C 127.897 127.360,134.946 120.726,137.599 118.600 C 138.971 117.500,140.682 116.105,141.400 115.500 C 142.118 114.895,142.907 114.400,143.153 114.400 C 143.399 114.400,143.600 114.238,143.600 114.040 C 143.600 113.740,145.755 112.199,146.919 111.667 C 147.094 111.587,147.787 111.019,148.458 110.406 C 149.129 109.793,150.657 108.776,151.854 108.146 C 154.663 106.666,154.950 106.494,157.772 104.596 C 159.077 103.718,160.607 102.691,161.172 102.314 C 161.738 101.937,163.190 101.136,164.400 100.535 C 165.610 99.933,166.870 99.233,167.200 98.977 C 168.381 98.064,173.186 95.600,173.787 95.600 C 174.124 95.600,174.400 95.423,174.400 95.208 C 174.400 94.992,174.895 94.697,175.500 94.553 C 176.105 94.409,177.050 94.053,177.600 93.762 C 178.150 93.471,179.500 92.853,180.600 92.388 C 181.700 91.923,183.167 91.285,183.860 90.971 C 184.554 90.657,185.318 90.400,185.559 90.400 C 186.047 90.400,190.554 88.944,191.800 88.383 C 194.104 87.347,204.180 84.384,210.600 82.855 C 215.403 81.711,216.471 81.728,217.294 82.960 M216.851 129.460 C 217.255 129.946,217.435 131.886,217.533 136.800 C 217.697 145.055,217.769 144.930,211.800 146.751 C 209.600 147.423,207.087 148.338,206.215 148.786 C 205.344 149.234,204.476 149.600,204.287 149.600 C 203.091 149.600,190.756 156.199,186.119 159.320 C 177.417 165.176,163.347 178.019,159.697 183.437 C 158.795 184.777,157.458 186.494,156.728 187.253 C 155.505 188.523,153.568 191.086,152.600 192.714 C 152.380 193.084,151.734 194.110,151.163 194.993 C 148.344 199.363,142.590 210.754,141.831 213.468 C 140.514 218.175,138.428 223.451,137.581 224.217 C 136.707 225.008,124.960 225.145,122.968 224.388 C 121.634 223.881,121.684 221.985,123.154 217.400 C 123.788 215.420,124.432 213.263,124.585 212.607 C 124.891 211.288,127.237 205.553,129.495 200.600 C 130.298 198.840,132.199 195.330,133.721 192.800 C 135.242 190.270,137.038 187.210,137.711 186.000 C 138.384 184.790,139.084 183.740,139.267 183.667 C 139.450 183.593,139.600 183.366,139.600 183.163 C 139.600 182.771,142.124 179.020,143.074 178.000 C 143.381 177.670,144.120 176.749,144.716 175.952 C 150.336 168.445,160.657 157.979,167.547 152.800 C 168.279 152.250,170.010 150.900,171.393 149.800 C 172.776 148.700,174.244 147.579,174.654 147.308 C 184.159 141.041,185.853 140.000,186.552 140.000 C 186.848 140.000,188.975 139.055,191.277 137.900 C 194.988 136.038,197.264 134.986,199.200 134.237 C 199.530 134.109,200.070 133.837,200.400 133.631 C 202.171 132.526,209.650 129.820,213.000 129.072 C 214.786 128.672,216.325 128.828,216.851 129.460 M216.624 172.968 C 217.267 173.438,217.425 174.135,217.544 177.033 C 217.793 183.092,217.170 184.037,210.793 187.274 C 207.143 189.128,202.413 192.160,200.817 193.670 C 200.276 194.181,198.792 195.436,197.518 196.459 C 196.244 197.481,193.896 199.730,192.301 201.457 C 190.705 203.185,188.816 205.228,188.103 205.999 C 187.389 206.770,186.538 207.960,186.210 208.645 C 185.883 209.330,185.341 210.117,185.007 210.394 C 184.673 210.671,184.400 211.066,184.400 211.272 C 184.400 211.478,183.876 212.311,183.235 213.123 C 182.594 213.936,180.870 216.711,179.403 219.290 C 176.327 224.699,176.127 224.823,170.600 224.758 C 166.354 224.708,165.430 224.427,165.278 223.137 C 165.013 220.884,172.556 206.903,177.000 201.411 C 181.238 196.173,186.376 190.400,186.799 190.400 C 187.156 190.400,188.931 188.900,192.355 185.706 C 193.590 184.554,194.825 183.609,195.100 183.606 C 195.375 183.603,195.600 183.452,195.600 183.271 C 195.600 182.758,204.046 177.341,208.334 175.104 C 213.755 172.277,215.177 171.910,216.624 172.968 M250.800 194.841 C 251.790 195.066,253.581 195.427,254.781 195.643 C 255.981 195.860,257.151 196.188,257.381 196.372 C 257.611 196.557,258.388 196.833,259.106 196.987 C 260.392 197.262,266.254 199.617,267.785 200.473 C 268.216 200.715,269.296 201.303,270.185 201.779 C 277.313 205.605,282.808 210.859,288.611 219.400 C 290.751 222.550,295.200 231.798,295.200 233.098 C 295.200 233.506,295.383 234.023,295.608 234.248 C 295.987 234.627,296.632 237.875,297.661 244.600 C 298.221 248.254,297.844 257.590,297.031 260.200 C 296.689 261.300,296.407 262.622,296.404 263.138 C 296.399 264.259,294.899 269.320,294.142 270.771 C 293.847 271.337,293.604 272.104,293.602 272.476 C 293.601 272.848,293.441 273.251,293.248 273.371 C 293.054 273.490,292.221 274.934,291.397 276.579 C 287.167 285.026,276.110 296.950,270.532 299.080 C 269.715 299.392,269.587 299.482,267.574 301.162 L 266.149 302.352 266.217 375.076 C 266.255 415.074,266.164 455.180,266.016 464.200 L 265.746 480.600 264.237 483.671 C 261.101 490.047,254.322 495.221,247.800 496.214 C 246.920 496.348,245.251 496.654,244.092 496.894 C 234.695 498.841,221.579 491.492,217.509 482.000 L 216.223 479.000 216.179 390.800 C 216.154 342.290,216.006 302.149,215.848 301.598 C 215.664 300.952,214.419 299.813,212.351 298.398 C 207.114 294.814,205.637 293.597,201.607 289.540 C 197.099 285.002,191.600 277.317,191.600 275.555 C 191.600 275.284,191.360 274.779,191.067 274.431 C 190.427 273.674,188.170 267.570,187.801 265.600 C 187.657 264.830,187.303 263.480,187.014 262.600 C 185.496 257.978,184.849 249.028,185.711 244.586 C 186.050 242.834,186.443 240.680,186.582 239.800 C 188.580 227.207,198.595 211.886,209.656 204.506 C 211.275 203.426,213.283 202.071,214.119 201.496 C 216.385 199.936,221.984 197.314,223.763 196.981 C 224.622 196.819,225.792 196.444,226.363 196.146 C 226.933 195.848,227.907 195.604,228.526 195.602 C 229.146 195.601,230.046 195.389,230.526 195.130 C 232.313 194.169,246.921 193.961,250.800 194.841 M237.136 202.197 C 236.996 202.337,235.469 202.700,233.741 203.004 C 229.430 203.762,225.969 204.671,225.463 205.177 C 225.230 205.410,224.761 205.601,224.420 205.603 C 224.079 205.604,222.450 206.279,220.800 207.103 C 209.206 212.894,199.702 224.037,195.982 236.200 C 195.511 237.740,194.827 239.810,194.463 240.800 C 193.924 242.263,193.807 244.062,193.837 250.400 C 193.884 260.160,194.577 263.191,198.555 271.042 C 199.570 273.045,200.400 274.881,200.400 275.122 C 200.400 275.363,200.641 275.704,200.936 275.880 C 201.231 276.056,201.983 277.100,202.608 278.200 C 204.015 280.679,213.195 289.877,214.894 290.511 C 217.500 291.484,216.903 282.476,214.181 279.754 C 207.903 273.476,204.095 266.541,202.786 259.000 C 202.010 254.535,201.695 250.108,202.016 248.200 C 202.201 247.100,202.363 245.379,202.376 244.375 C 202.402 242.367,203.629 237.283,204.542 235.400 C 204.862 234.740,205.521 233.310,206.007 232.223 C 212.548 217.585,233.129 207.155,248.400 210.740 C 249.390 210.972,251.100 211.350,252.200 211.579 C 254.253 212.006,254.446 212.075,257.711 213.541 C 258.762 214.014,259.858 214.400,260.148 214.400 C 260.942 214.400,265.853 217.980,268.872 220.759 C 274.091 225.565,277.481 230.854,280.066 238.225 L 281.741 243.000 281.720 250.600 L 281.699 258.200 280.266 262.517 C 278.142 268.915,274.913 274.054,269.697 279.336 L 266.600 282.472 266.487 286.536 C 266.339 291.844,266.523 292.092,269.258 290.277 C 273.387 287.536,282.400 278.108,282.400 276.530 C 282.400 276.383,282.658 275.978,282.973 275.630 C 289.409 268.518,291.792 244.828,287.181 233.800 C 286.048 231.090,283.481 225.772,283.225 225.602 C 283.057 225.491,282.685 224.950,282.399 224.400 C 280.480 220.720,275.273 215.110,271.208 212.344 C 269.554 211.218,267.750 209.894,267.200 209.402 C 264.413 206.909,258.075 204.343,251.200 202.925 C 248.113 202.289,237.590 201.744,237.136 202.197 M191.400 324.879 C 198.018 326.517,204.832 331.556,206.032 335.697 C 206.577 337.582,206.521 482.934,205.973 484.913 C 205.234 487.588,201.292 492.400,199.840 492.400 C 199.633 492.400,199.168 492.667,198.807 492.994 C 198.445 493.321,196.901 494.056,195.375 494.628 C 181.701 499.752,162.710 495.541,157.953 486.329 L 157.060 484.600 157.046 410.400 L 157.033 336.200 157.884 334.579 C 160.208 330.154,166.034 326.603,174.200 324.632 C 177.319 323.879,187.981 324.032,191.400 324.879 M134.758 348.790 C 140.589 350.950,143.401 352.822,145.477 355.923 L 147.000 358.200 147.113 421.770 L 147.225 485.341 146.203 487.430 C 145.308 489.260,142.250 492.400,141.364 492.400 C 141.199 492.400,140.779 492.650,140.431 492.955 C 135.090 497.652,109.590 497.634,103.969 492.929 C 103.621 492.638,103.159 492.400,102.942 492.400 C 102.041 492.400,98.507 488.507,97.859 486.800 C 96.956 484.424,97.006 359.489,97.911 357.446 C 99.267 354.380,104.723 350.328,109.920 348.525 C 115.150 346.711,129.562 346.865,134.758 348.790 M357.858 349.640 C 360.611 350.484,365.760 353.281,367.821 355.052 C 368.428 355.573,369.048 356.000,369.200 356.000 C 370.898 356.000,382.147 369.381,382.986 372.400 C 383.139 372.950,383.500 373.940,383.789 374.600 C 386.326 380.391,385.487 383.663,380.055 389.170 C 377.935 391.320,374.670 394.683,372.800 396.645 C 370.930 398.606,368.230 401.321,366.800 402.679 C 364.189 405.159,321.613 448.080,318.582 451.287 C 314.003 456.134,307.203 462.405,305.716 463.153 C 303.180 464.428,297.603 463.974,295.820 462.347 C 295.611 462.156,295.173 462.000,294.846 462.000 C 292.963 462.000,285.846 457.197,282.697 453.800 C 282.289 453.360,281.454 452.460,280.840 451.800 C 277.160 447.840,271.600 439.228,271.600 437.487 C 271.600 437.160,271.331 436.376,271.002 435.746 C 268.595 431.130,270.189 428.729,286.269 412.747 C 293.271 405.788,303.516 395.528,309.035 389.947 C 314.555 384.366,320.175 378.720,321.525 377.400 C 322.875 376.080,329.458 369.463,336.155 362.696 C 350.965 347.730,351.187 347.596,357.858 349.640 M69.800 388.837 C 76.979 389.703,83.900 391.957,85.886 394.077 C 87.836 396.156,87.802 395.279,87.787 443.200 L 87.773 488.200 86.833 489.864 C 84.347 494.265,72.840 497.198,60.400 496.601 C 51.580 496.178,50.352 496.075,49.251 495.665 C 48.673 495.449,46.902 494.866,45.316 494.369 C 41.331 493.120,38.613 490.758,38.098 488.098 C 37.406 484.524,37.799 397.147,38.514 395.773 C 40.258 392.419,48.577 388.988,55.391 388.813 C 56.706 388.779,57.861 388.672,57.958 388.576 C 58.300 388.233,66.252 388.409,69.800 388.837 M66.904 519.510 C 68.831 519.729,70.631 520.085,70.904 520.302 C 71.177 520.518,72.210 520.784,73.200 520.892 C 76.165 521.215,83.840 525.326,86.712 528.129 C 88.566 529.938,92.400 534.610,92.400 535.060 C 92.400 535.212,92.645 535.621,92.945 535.969 C 93.686 536.827,95.962 542.582,96.438 544.800 C 98.899 556.283,99.462 565.379,98.180 572.943 C 95.569 588.352,94.566 591.537,90.535 597.217 C 88.021 600.761,82.639 605.100,80.000 605.712 C 79.450 605.840,78.100 606.235,77.000 606.591 C 75.900 606.947,74.190 607.486,73.200 607.788 C 69.830 608.818,56.502 609.401,36.959 609.373 C 16.976 609.344,15.924 609.252,15.358 607.469 C 14.629 605.171,14.941 521.179,15.684 519.958 L 16.407 518.770 39.903 518.941 C 52.826 519.035,64.977 519.291,66.904 519.510 M293.600 519.717 C 294.601 520.223,295.361 531.239,294.607 534.300 L 294.385 535.200 281.355 535.200 C 249.639 535.200,244.476 538.542,243.041 560.000 C 242.686 565.313,244.084 578.326,245.168 579.800 C 245.330 580.020,245.790 581.100,246.191 582.200 C 249.356 590.893,255.300 592.764,279.820 592.787 C 290.176 592.797,293.965 592.925,294.320 593.280 C 295.082 594.042,294.988 607.746,294.216 608.387 C 293.024 609.376,251.140 608.727,248.048 607.671 C 246.644 607.192,245.294 606.800,245.048 606.800 C 244.802 606.799,243.430 606.212,242.000 605.495 C 227.957 598.453,221.506 584.615,222.098 562.800 C 222.521 547.200,226.734 535.042,233.936 528.633 C 234.451 528.175,235.441 527.283,236.136 526.651 C 237.227 525.659,240.809 523.790,245.000 522.026 C 250.111 519.875,256.360 519.380,279.800 519.271 C 289.419 519.227,292.849 519.337,293.600 519.717 M386.331 519.757 C 387.017 520.182,386.988 534.148,386.300 534.712 C 385.996 534.961,380.457 535.235,372.200 535.409 C 364.172 535.579,358.395 535.861,358.100 536.097 C 357.707 536.412,357.600 544.126,357.600 572.235 C 357.600 607.776,357.596 607.974,356.785 608.408 C 355.540 609.075,339.910 608.755,339.055 608.046 C 338.457 607.550,338.400 604.375,338.400 571.765 L 338.400 536.028 337.509 535.551 C 336.843 535.195,333.422 535.140,323.967 535.333 C 312.061 535.576,311.277 535.548,310.658 534.864 C 309.783 533.897,309.665 520.776,310.525 520.062 C 311.375 519.356,385.202 519.060,386.331 519.757 M208.246 520.074 C 208.868 521.081,208.742 607.601,208.117 608.226 C 207.228 609.115,190.723 609.065,189.829 608.171 C 189.058 607.401,188.849 521.803,189.614 520.374 C 190.119 519.430,207.673 519.147,208.246 520.074 M35.900 536.416 C 35.244 536.813,35.200 538.570,35.200 564.177 L 35.200 591.513 36.154 591.753 C 37.517 592.095,60.052 592.102,61.412 591.761 C 62.036 591.605,63.009 591.235,63.573 590.941 C 64.138 590.646,64.820 590.404,65.088 590.402 C 66.095 590.397,70.365 587.681,70.387 587.031 C 70.394 586.829,70.657 586.379,70.971 586.031 C 77.141 579.208,78.245 556.259,72.926 545.400 C 70.813 541.086,69.131 539.594,63.400 536.951 C 61.496 536.073,37.245 535.601,35.900 536.416 M148.869 542.023 C 161.336 544.501,168.736 550.478,174.101 562.400 C 176.443 567.605,177.317 582.533,175.506 586.400 C 175.145 587.170,174.376 589.096,173.798 590.681 C 170.638 599.327,163.855 605.253,152.800 609.027 C 149.241 610.241,135.388 610.378,131.627 609.236 C 130.114 608.776,128.661 608.400,128.398 608.400 C 127.861 608.400,126.363 607.766,122.000 605.691 C 114.443 602.097,109.308 594.437,106.787 583.000 C 106.307 580.822,106.341 571.819,106.838 569.600 C 107.059 568.610,107.400 566.950,107.594 565.912 C 109.312 556.745,119.679 546.006,129.114 543.622 C 129.931 543.416,131.860 542.892,133.400 542.459 C 136.627 541.552,145.272 541.308,148.869 542.023 M137.342 557.652 C 130.737 558.602,127.492 563.104,126.423 572.800 C 124.651 588.879,132.912 598.095,146.059 594.706 C 153.520 592.783,156.955 587.029,156.986 576.400 C 157.028 561.499,150.948 555.696,137.342 557.652 " stroke="none" fill="#f3f3f3" fill-rule="evenodd"></path><path id="path2" d="M237.017 210.890 C 224.136 212.523,211.260 221.927,205.979 233.558 C 205.519 234.571,204.983 235.700,204.788 236.068 C 202.528 240.324,201.804 254.216,203.509 260.626 C 205.167 266.860,209.002 273.671,213.152 277.755 C 216.393 280.944,216.800 280.032,216.800 269.571 C 216.800 258.988,222.285 250.066,230.072 247.984 C 231.022 247.730,231.980 247.378,232.200 247.202 C 234.107 245.675,243.691 245.020,247.236 246.174 C 254.459 248.523,255.412 249.074,259.793 253.424 C 264.488 258.086,265.600 261.682,265.600 272.199 C 265.600 282.261,266.796 282.755,272.817 275.182 C 294.670 247.701,271.722 206.491,237.017 210.890 M190.400 520.392 C 189.560 520.922,189.481 606.841,190.320 607.680 C 190.891 608.252,205.971 608.458,207.300 607.913 C 208.193 607.546,208.410 521.370,207.520 520.480 C 206.930 519.890,191.321 519.809,190.400 520.392 M253.000 520.417 C 236.957 522.863,226.510 533.825,223.790 551.069 C 223.449 553.231,223.000 556.080,222.793 557.400 C 222.220 561.048,222.321 570.432,222.968 573.717 C 223.281 575.303,223.741 577.840,223.990 579.355 C 226.684 595.745,238.502 606.956,254.200 608.014 C 262.552 608.577,293.324 608.008,293.900 607.280 C 294.670 606.306,294.591 595.651,293.806 594.530 C 293.223 593.697,292.933 593.678,278.506 593.494 C 258.806 593.244,253.672 592.265,249.198 587.910 C 240.774 579.709,240.177 549.259,248.277 540.964 C 253.198 535.925,256.775 535.171,277.281 534.849 C 289.506 534.657,293.281 534.480,293.681 534.080 C 294.491 533.269,294.418 520.909,293.600 520.392 C 292.885 519.940,255.981 519.963,253.000 520.417 M310.823 520.573 C 310.271 521.238,310.371 533.707,310.933 534.268 C 311.116 534.450,317.140 534.652,324.319 534.716 C 335.666 534.817,337.466 534.917,338.086 535.478 C 338.761 536.089,338.800 538.048,338.800 571.288 C 338.800 593.418,338.945 606.723,339.191 607.183 C 339.632 608.007,351.792 608.706,355.000 608.093 L 356.600 607.787 356.800 572.107 C 356.988 538.556,357.043 536.386,357.714 535.714 C 358.362 535.065,359.665 534.982,372.029 534.800 C 383.530 534.631,385.689 534.507,386.014 534.000 C 386.231 533.661,386.355 530.524,386.299 526.800 L 386.200 520.200 348.751 520.098 C 316.538 520.010,311.234 520.077,310.823 520.573 " stroke="none" fill="#e62c33" fill-rule="evenodd"></path><path id="path3" d="M208.400 22.980 C 205.258 23.727,201.717 24.442,199.400 24.799 C 197.627 25.073,194.812 25.776,187.200 27.849 C 185.990 28.178,184.190 28.610,183.200 28.809 C 182.210 29.008,180.680 29.439,179.800 29.768 C 178.920 30.096,177.957 30.373,177.660 30.382 C 177.364 30.392,176.554 30.650,175.860 30.956 C 174.625 31.501,170.170 33.165,167.000 34.266 C 166.120 34.572,165.040 34.975,164.600 35.163 C 164.160 35.351,162.990 35.831,162.000 36.230 C 161.010 36.630,159.722 37.281,159.138 37.678 C 158.554 38.075,157.862 38.400,157.600 38.400 C 157.338 38.400,156.646 38.656,156.062 38.969 C 155.478 39.282,154.190 39.900,153.200 40.343 C 147.762 42.776,133.010 50.177,131.782 51.089 C 131.552 51.260,130.718 51.760,129.928 52.200 C 126.072 54.348,112.595 63.582,108.200 67.087 C 107.980 67.263,107.260 67.746,106.600 68.160 C 105.242 69.013,100.412 72.840,98.600 74.498 C 97.940 75.102,97.291 75.597,97.158 75.598 C 96.785 75.601,83.658 87.994,77.878 93.800 C 73.872 97.824,65.085 108.643,59.400 116.550 C 58.960 117.162,57.467 119.134,56.083 120.931 C 54.698 122.729,53.096 124.920,52.523 125.800 C 48.707 131.657,48.000 132.786,48.000 133.023 C 48.000 133.169,47.119 134.754,46.042 136.544 C 42.203 142.926,31.600 163.637,31.600 164.754 C 31.600 165.132,31.440 165.611,31.245 165.820 C 30.611 166.500,27.556 174.549,26.471 178.400 C 26.254 179.170,25.324 181.870,24.406 184.400 C 22.388 189.958,20.800 195.425,20.800 196.817 C 20.800 197.380,20.610 198.030,20.377 198.263 C 20.144 198.496,19.850 199.747,19.723 201.043 C 19.596 202.339,19.348 203.584,19.172 203.810 C 18.652 204.476,17.064 212.830,16.052 220.223 C 15.419 224.843,15.193 224.767,30.000 224.899 C 42.571 225.010,43.817 224.831,44.227 222.849 C 44.347 222.272,44.691 220.810,44.992 219.600 C 45.294 218.390,45.653 216.410,45.791 215.200 C 46.087 212.598,46.630 209.964,47.605 206.400 C 47.997 204.970,48.438 203.103,48.586 202.251 C 48.734 201.399,49.013 200.409,49.206 200.051 C 49.400 199.693,49.944 198.050,50.416 196.400 C 51.431 192.850,52.733 189.172,53.175 188.605 C 53.349 188.382,53.609 187.427,53.753 186.483 C 53.897 185.538,54.171 184.458,54.361 184.083 C 54.551 183.707,55.116 182.320,55.617 181.000 C 56.941 177.511,58.200 174.696,62.946 164.600 C 63.774 162.840,64.612 161.130,64.808 160.800 C 65.005 160.470,66.022 158.760,67.068 157.000 C 68.114 155.240,69.112 153.740,69.285 153.667 C 69.458 153.593,69.600 153.355,69.600 153.137 C 69.600 152.651,72.781 147.209,73.505 146.458 C 73.792 146.160,74.385 145.260,74.824 144.458 C 75.263 143.656,75.932 142.534,76.311 141.964 C 76.690 141.394,77.703 139.864,78.562 138.564 C 81.417 134.244,87.516 126.428,92.498 120.704 C 94.314 118.617,96.543 116.029,97.452 114.953 C 98.360 113.877,100.139 112.007,101.405 110.798 C 102.670 109.589,104.357 107.912,105.153 107.070 C 106.397 105.754,112.851 99.972,117.238 96.242 C 118.505 95.164,121.762 92.665,128.240 87.800 C 133.552 83.810,138.978 80.000,139.347 80.000 C 139.555 80.000,140.314 79.550,141.035 79.000 C 141.756 78.451,142.763 77.820,143.273 77.598 C 143.783 77.376,145.280 76.561,146.600 75.785 C 147.920 75.010,149.540 74.109,150.200 73.782 C 150.860 73.455,151.670 73.025,152.000 72.825 C 154.709 71.186,156.785 70.059,157.534 69.821 C 158.023 69.666,159.359 68.923,160.502 68.169 C 161.646 67.416,162.813 66.800,163.097 66.800 C 163.380 66.800,165.274 66.011,167.306 65.047 C 173.077 62.310,181.399 59.240,187.000 57.782 C 188.100 57.496,190.350 56.881,192.000 56.415 C 193.650 55.950,195.990 55.324,197.200 55.024 C 198.410 54.724,200.750 54.090,202.400 53.615 C 205.424 52.744,209.014 51.961,213.361 51.225 C 214.836 50.975,216.080 50.488,216.676 49.928 L 217.631 49.032 217.515 36.101 C 217.417 25.129,217.309 23.113,216.800 22.791 C 215.946 22.252,210.997 22.363,208.400 22.980 M216.465 25.000 C 216.803 27.554,216.869 47.101,216.544 48.316 C 216.227 49.500,214.746 50.238,212.000 50.581 C 208.759 50.986,197.932 53.612,193.600 55.044 C 192.610 55.371,190.810 55.889,189.600 56.196 C 183.595 57.715,172.613 61.716,166.600 64.575 C 164.620 65.517,162.550 66.429,162.000 66.602 C 161.450 66.775,160.305 67.356,159.455 67.892 C 158.605 68.428,157.094 69.217,156.098 69.644 C 155.101 70.071,152.612 71.406,150.565 72.610 C 148.519 73.815,146.744 74.800,146.622 74.800 C 145.893 74.800,134.930 81.750,130.200 85.210 C 127.120 87.463,123.805 89.868,122.834 90.554 C 115.996 95.381,100.212 110.333,92.000 119.764 C 75.363 138.869,60.578 164.193,52.585 187.273 C 50.364 193.686,48.767 198.787,48.204 201.266 C 47.921 202.512,47.560 203.741,47.402 203.997 C 46.924 204.771,45.895 209.466,43.962 219.704 C 43.106 224.236,43.856 224.001,30.284 223.995 C 17.683 223.989,16.978 223.924,16.670 222.747 C 16.405 221.732,18.238 210.396,19.378 206.000 C 19.692 204.790,20.254 202.540,20.626 201.000 C 22.346 193.886,23.084 190.954,23.295 190.400 C 23.420 190.070,23.816 188.900,24.174 187.800 C 27.089 178.857,29.882 171.054,31.191 168.200 C 31.393 167.760,32.045 166.140,32.640 164.600 C 36.787 153.866,50.151 130.059,57.676 120.000 C 74.610 97.365,88.803 82.638,106.743 69.091 C 108.424 67.821,110.430 66.276,111.200 65.658 C 112.821 64.355,119.063 60.124,122.793 57.800 C 124.205 56.920,126.449 55.471,127.780 54.579 C 130.812 52.549,137.897 48.594,143.600 45.749 C 147.322 43.893,155.052 40.298,156.400 39.797 C 157.170 39.511,159.240 38.613,161.000 37.802 C 164.546 36.169,164.467 36.199,173.200 33.100 C 180.881 30.374,182.344 29.919,187.600 28.617 C 189.910 28.045,192.430 27.403,193.200 27.190 C 197.196 26.083,201.057 25.200,201.902 25.200 C 202.425 25.200,203.201 25.013,203.627 24.785 C 204.053 24.557,205.977 24.179,207.901 23.946 C 209.825 23.712,211.670 23.359,212.000 23.162 C 212.330 22.965,213.410 22.848,214.400 22.902 L 216.200 23.000 216.465 25.000 M210.600 82.855 C 204.180 84.384,194.104 87.347,191.800 88.383 C 190.554 88.944,186.047 90.400,185.559 90.400 C 185.318 90.400,184.554 90.657,183.860 90.971 C 183.167 91.285,181.700 91.923,180.600 92.388 C 179.500 92.853,178.150 93.471,177.600 93.762 C 177.050 94.053,176.105 94.409,175.500 94.553 C 174.895 94.697,174.400 94.992,174.400 95.208 C 174.400 95.423,174.124 95.600,173.787 95.600 C 173.186 95.600,168.381 98.064,167.200 98.977 C 166.870 99.233,165.610 99.933,164.400 100.535 C 163.190 101.136,161.738 101.937,161.172 102.314 C 160.607 102.691,159.077 103.718,157.772 104.596 C 154.950 106.494,154.663 106.666,151.854 108.146 C 150.657 108.776,149.129 109.793,148.458 110.406 C 147.787 111.019,147.094 111.587,146.919 111.667 C 145.755 112.199,143.600 113.740,143.600 114.040 C 143.600 114.238,143.399 114.400,143.153 114.400 C 142.907 114.400,142.118 114.895,141.400 115.500 C 140.682 116.105,138.971 117.500,137.599 118.600 C 134.946 120.726,127.897 127.360,120.596 134.600 C 116.005 139.152,108.515 148.197,107.015 151.000 C 106.309 152.318,102.609 157.571,100.674 160.000 C 99.654 161.281,96.952 165.489,96.000 167.279 C 95.450 168.314,94.325 170.262,93.501 171.608 C 92.676 172.954,91.893 174.485,91.761 175.011 C 91.630 175.537,91.269 176.177,90.961 176.433 C 90.652 176.689,90.400 177.050,90.400 177.235 C 90.400 177.421,89.574 179.244,88.564 181.286 C 87.554 183.329,86.299 186.260,85.774 187.800 C 85.249 189.340,84.349 191.860,83.775 193.400 C 83.200 194.940,82.290 197.460,81.753 199.000 C 81.216 200.540,80.512 202.367,80.188 203.060 C 79.865 203.754,79.600 204.573,79.600 204.880 C 79.600 205.188,79.437 205.611,79.239 205.820 C 78.875 206.202,77.830 209.853,77.125 213.200 C 76.916 214.190,76.476 216.267,76.146 217.817 C 74.720 224.509,74.973 224.731,84.427 225.079 C 97.606 225.565,96.877 226.215,100.231 211.000 C 100.570 209.460,101.017 208.029,101.224 207.820 C 101.431 207.611,101.600 207.203,101.600 206.914 C 101.600 206.255,104.273 199.489,105.944 195.917 C 106.635 194.441,107.200 193.054,107.200 192.834 C 107.200 192.615,107.719 191.555,108.354 190.478 C 108.988 189.402,109.640 188.089,109.803 187.561 C 110.214 186.226,113.879 179.353,115.260 177.328 C 115.887 176.408,116.400 175.557,116.400 175.436 C 116.400 175.225,119.503 170.582,123.178 165.294 C 124.751 163.030,126.940 160.352,129.955 157.000 C 130.549 156.340,131.869 154.720,132.889 153.400 C 137.131 147.910,148.190 137.534,154.847 132.800 C 156.548 131.590,159.393 129.484,161.169 128.120 C 166.424 124.082,184.927 113.600,186.798 113.600 C 187.225 113.600,188.697 112.922,190.400 111.941 C 190.730 111.750,191.180 111.533,191.400 111.458 C 191.620 111.383,192.430 111.094,193.200 110.815 C 193.970 110.537,195.410 110.072,196.400 109.781 C 197.390 109.490,199.190 108.869,200.400 108.400 C 201.610 107.931,203.500 107.283,204.600 106.959 C 208.368 105.849,212.600 104.715,214.121 104.407 C 214.958 104.238,216.083 103.686,216.621 103.180 L 217.600 102.261 217.594 92.830 C 217.586 80.665,217.902 81.116,210.600 82.855 M216.177 83.689 C 216.820 84.606,217.142 100.243,216.551 101.784 C 216.229 102.621,213.846 103.816,211.800 104.165 C 210.024 104.468,202.981 106.524,200.800 107.377 C 200.030 107.678,198.184 108.312,196.697 108.787 C 195.210 109.262,193.500 109.908,192.897 110.223 C 192.294 110.538,191.521 110.796,191.180 110.798 C 190.839 110.799,190.389 110.962,190.180 111.159 C 189.971 111.357,188.540 112.014,187.000 112.620 C 179.789 115.456,165.266 123.802,158.600 128.941 C 157.500 129.789,155.129 131.589,153.330 132.941 C 132.186 148.842,112.469 175.477,103.034 200.887 C 100.430 207.899,100.155 208.753,97.647 217.600 C 96.992 219.910,96.268 222.295,96.038 222.900 L 95.620 224.000 86.910 223.995 C 75.775 223.988,75.504 223.902,76.438 220.683 C 76.643 219.977,77.160 217.690,77.588 215.600 C 78.484 211.218,79.668 207.215,81.906 201.000 C 86.010 189.606,86.838 187.344,87.175 186.600 C 92.429 175.009,99.723 161.960,103.607 157.200 C 104.056 156.650,104.913 155.425,105.512 154.478 C 112.961 142.691,132.806 122.526,146.546 112.780 C 150.723 109.818,153.412 108.018,153.672 108.009 C 153.821 108.004,154.991 107.312,156.272 106.472 C 171.879 96.226,188.328 89.345,210.800 83.660 C 214.830 82.641,215.446 82.644,216.177 83.689 M213.000 129.072 C 209.650 129.820,202.171 132.526,200.400 133.631 C 200.070 133.837,199.530 134.109,199.200 134.237 C 197.264 134.986,194.988 136.038,191.277 137.900 C 188.975 139.055,186.848 140.000,186.552 140.000 C 185.853 140.000,184.159 141.041,174.654 147.308 C 174.244 147.579,172.776 148.700,171.393 149.800 C 170.010 150.900,168.279 152.250,167.547 152.800 C 160.657 157.979,150.336 168.445,144.716 175.952 C 144.120 176.749,143.381 177.670,143.074 178.000 C 142.124 179.020,139.600 182.771,139.600 183.163 C 139.600 183.366,139.450 183.593,139.267 183.667 C 139.084 183.740,138.384 184.790,137.711 186.000 C 137.038 187.210,135.242 190.270,133.721 192.800 C 132.199 195.330,130.298 198.840,129.495 200.600 C 127.237 205.553,124.891 211.288,124.585 212.607 C 124.432 213.263,123.788 215.420,123.154 217.400 C 121.684 221.985,121.634 223.881,122.968 224.388 C 124.960 225.145,136.707 225.008,137.581 224.217 C 138.428 223.451,140.514 218.175,141.831 213.468 C 142.590 210.754,148.344 199.363,151.163 194.993 C 151.734 194.110,152.380 193.084,152.600 192.714 C 153.568 191.086,155.505 188.523,156.728 187.253 C 157.458 186.494,158.795 184.777,159.697 183.437 C 163.347 178.019,177.417 165.176,186.119 159.320 C 190.756 156.199,203.091 149.600,204.287 149.600 C 204.476 149.600,205.344 149.234,206.215 148.786 C 207.087 148.338,209.600 147.423,211.800 146.751 C 217.769 144.930,217.697 145.055,217.533 136.800 C 217.370 128.631,217.093 128.157,213.000 129.072 M216.031 130.238 C 216.398 130.680,216.612 132.693,216.729 136.819 L 216.898 142.764 215.700 143.961 C 215.041 144.620,213.984 145.269,213.351 145.404 C 212.718 145.539,211.609 145.908,210.886 146.224 C 210.164 146.541,209.331 146.800,209.036 146.800 C 208.133 146.800,194.724 153.128,192.684 154.517 C 192.071 154.935,190.578 155.805,189.368 156.451 C 185.200 158.675,176.353 165.309,171.600 169.773 C 166.666 174.408,160.454 180.892,159.311 182.600 C 158.723 183.480,157.406 185.190,156.385 186.400 C 154.495 188.640,148.000 198.380,148.000 198.974 C 148.000 199.079,147.433 200.118,146.740 201.282 C 143.919 206.021,140.024 215.019,138.798 219.627 C 138.539 220.602,137.969 221.985,137.531 222.700 L 136.735 224.000 130.400 224.000 C 121.543 224.000,121.786 224.301,124.352 216.512 C 132.904 190.555,148.439 168.590,169.937 152.060 C 173.700 149.167,176.886 146.800,177.017 146.800 C 177.149 146.800,179.089 145.592,181.328 144.115 C 183.568 142.638,186.300 141.049,187.400 140.582 C 188.500 140.116,191.110 138.908,193.200 137.898 C 201.846 133.719,207.510 131.468,212.600 130.191 C 215.317 129.508,215.427 129.510,216.031 130.238 M213.200 172.778 C 210.130 173.728,195.600 182.391,195.600 183.271 C 195.600 183.452,195.375 183.603,195.100 183.606 C 194.825 183.609,193.590 184.554,192.355 185.706 C 188.931 188.900,187.156 190.400,186.799 190.400 C 186.376 190.400,181.238 196.173,177.000 201.411 C 172.556 206.903,165.013 220.884,165.278 223.137 C 165.430 224.427,166.354 224.708,170.600 224.758 C 176.127 224.823,176.327 224.699,179.403 219.290 C 180.870 216.711,182.594 213.936,183.235 213.123 C 183.876 212.311,184.400 211.478,184.400 211.272 C 184.400 211.066,184.673 210.671,185.007 210.394 C 185.341 210.117,185.883 209.330,186.210 208.645 C 186.538 207.960,187.389 206.770,188.103 205.999 C 188.816 205.228,190.705 203.185,192.301 201.457 C 193.896 199.730,196.244 197.481,197.518 196.459 C 198.792 195.436,200.276 194.181,200.817 193.670 C 202.413 192.160,207.143 189.128,210.793 187.274 C 217.170 184.037,217.793 183.092,217.544 177.033 C 217.361 172.594,216.505 171.755,213.200 172.778 M215.920 173.680 C 216.441 174.201,216.560 181.654,216.067 182.899 C 215.772 183.644,214.794 184.264,209.953 186.775 C 202.527 190.627,191.454 200.134,186.428 206.973 C 183.339 211.175,180.239 215.905,178.544 218.999 C 175.816 223.977,176.072 223.779,172.168 223.942 C 164.954 224.242,164.993 224.337,168.980 216.227 C 176.010 201.928,187.962 188.528,200.600 180.774 C 201.700 180.099,203.590 178.927,204.800 178.169 C 207.741 176.327,214.095 173.307,215.220 173.218 C 215.341 173.208,215.656 173.416,215.920 173.680 M235.000 194.430 C 233.020 194.557,231.007 194.872,230.526 195.130 C 230.046 195.389,229.146 195.601,228.526 195.602 C 227.907 195.604,226.933 195.848,226.363 196.146 C 225.792 196.444,224.622 196.819,223.763 196.981 C 221.984 197.314,216.385 199.936,214.119 201.496 C 213.283 202.071,211.275 203.426,209.656 204.506 C 198.595 211.886,188.580 227.207,186.582 239.800 C 186.443 240.680,186.050 242.834,185.711 244.586 C 184.849 249.028,185.496 257.978,187.014 262.600 C 187.303 263.480,187.657 264.830,187.801 265.600 C 188.170 267.570,190.427 273.674,191.067 274.431 C 191.360 274.779,191.600 275.284,191.600 275.555 C 191.600 277.317,197.099 285.002,201.607 289.540 C 205.637 293.597,207.114 294.814,212.351 298.398 C 214.419 299.813,215.664 300.952,215.848 301.598 C 216.006 302.149,216.154 342.290,216.179 390.800 L 216.223 479.000 217.509 482.000 C 221.579 491.492,234.695 498.841,244.092 496.894 C 245.251 496.654,246.920 496.348,247.800 496.214 C 254.322 495.221,261.101 490.047,264.237 483.671 L 265.746 480.600 266.016 464.200 C 266.164 455.180,266.255 415.074,266.217 375.076 L 266.149 302.352 267.574 301.162 C 269.587 299.482,269.715 299.392,270.532 299.080 C 276.110 296.950,287.167 285.026,291.397 276.579 C 292.221 274.934,293.054 273.490,293.248 273.371 C 293.441 273.251,293.601 272.848,293.602 272.476 C 293.604 272.104,293.847 271.337,294.142 270.771 C 294.899 269.320,296.399 264.259,296.404 263.138 C 296.407 262.622,296.689 261.300,297.031 260.200 C 297.844 257.590,298.221 248.254,297.661 244.600 C 296.632 237.875,295.987 234.627,295.608 234.248 C 295.383 234.023,295.200 233.506,295.200 233.098 C 295.200 231.798,290.751 222.550,288.611 219.400 C 282.808 210.859,277.313 205.605,270.185 201.779 C 269.296 201.303,268.216 200.715,267.785 200.473 C 266.254 199.617,260.392 197.262,259.106 196.987 C 258.388 196.833,257.611 196.557,257.381 196.372 C 257.151 196.188,255.981 195.860,254.781 195.643 C 253.581 195.427,251.790 195.066,250.800 194.841 C 248.605 194.343,239.906 194.117,235.000 194.430 M252.800 195.906 C 272.508 200.570,289.905 216.046,294.439 232.946 C 294.683 233.856,295.117 235.230,295.402 236.000 C 297.477 241.591,297.484 258.968,295.415 264.800 C 295.142 265.570,294.605 267.190,294.221 268.400 C 290.508 280.110,279.893 292.904,268.684 299.180 C 267.410 299.894,266.125 300.865,265.827 301.339 C 265.378 302.055,265.299 314.088,265.360 372.800 C 265.452 460.474,265.254 479.066,264.206 481.600 C 256.277 500.773,226.467 500.773,218.178 481.600 C 217.417 479.839,217.396 477.851,217.200 390.542 C 217.002 301.991,216.994 301.277,216.200 300.391 C 215.760 299.900,213.870 298.435,212.000 297.136 C 204.728 292.083,204.125 291.535,198.400 284.776 C 187.343 271.720,183.536 250.916,189.071 233.800 C 195.192 214.870,212.867 198.833,230.758 195.975 C 232.177 195.748,233.622 195.391,233.969 195.180 C 235.139 194.471,248.993 195.005,252.800 195.906 M237.800 201.581 C 216.514 203.892,200.105 217.712,194.558 238.000 C 189.325 257.138,196.572 277.582,213.000 290.025 C 216.646 292.787,217.185 292.333,217.195 286.487 C 217.201 282.268,216.642 280.952,213.671 278.202 C 206.902 271.935,203.066 263.002,202.519 252.235 C 202.302 247.954,202.168 247.033,201.962 248.400 C 201.700 250.139,202.067 254.863,202.786 259.000 C 204.095 266.541,207.903 273.476,214.181 279.754 C 216.903 282.476,217.500 291.484,214.894 290.511 C 213.195 289.877,204.015 280.679,202.608 278.200 C 201.983 277.100,201.231 276.056,200.936 275.880 C 200.641 275.704,200.400 275.363,200.400 275.122 C 200.400 274.881,199.570 273.045,198.555 271.042 C 194.577 263.191,193.884 260.160,193.837 250.400 C 193.807 244.062,193.924 242.263,194.463 240.800 C 194.827 239.810,195.511 237.740,195.982 236.200 C 199.702 224.037,209.206 212.894,220.800 207.103 C 222.450 206.279,224.079 205.604,224.420 205.603 C 224.761 205.601,225.230 205.410,225.463 205.177 C 225.925 204.715,228.832 203.920,233.800 202.898 C 244.574 200.681,261.035 203.887,267.200 209.402 C 267.750 209.894,269.554 211.218,271.208 212.344 C 275.273 215.110,280.480 220.720,282.399 224.400 C 282.685 224.950,283.057 225.491,283.225 225.602 C 283.481 225.772,286.048 231.090,287.181 233.800 C 290.300 241.260,290.497 256.324,287.595 265.482 C 286.411 269.220,284.017 274.477,282.973 275.630 C 282.658 275.978,282.400 276.383,282.400 276.530 C 282.400 278.108,273.387 287.536,269.258 290.277 C 266.523 292.092,266.339 291.844,266.487 286.536 L 266.600 282.472 269.697 279.336 C 274.913 274.054,278.142 268.915,280.266 262.517 L 281.699 258.200 281.720 250.600 L 281.741 243.000 280.066 238.225 C 277.481 230.854,274.091 225.565,268.872 220.759 C 265.853 217.980,260.942 214.400,260.148 214.400 C 259.858 214.400,258.762 214.014,257.711 213.541 C 254.455 212.079,254.252 212.006,252.300 211.597 C 251.255 211.379,249.545 211.001,248.500 210.759 C 233.078 207.177,212.570 217.536,206.007 232.223 C 205.521 233.310,204.862 234.740,204.542 235.400 C 203.533 237.482,202.398 242.471,202.455 244.575 L 202.509 246.600 202.801 244.200 C 203.110 241.652,204.209 237.162,204.792 236.061 C 204.985 235.697,205.519 234.571,205.979 233.558 C 221.208 200.014,270.835 204.853,280.236 240.800 C 283.874 254.708,277.966 273.520,267.893 280.104 C 265.489 281.675,264.393 292.011,266.600 292.307 C 269.146 292.649,279.337 283.185,283.084 276.999 C 304.267 242.030,277.398 197.281,237.800 201.581 M174.200 324.632 C 166.034 326.603,160.208 330.154,157.884 334.579 L 157.033 336.200 157.046 410.400 L 157.060 484.600 157.953 486.329 C 162.710 495.541,181.701 499.752,195.375 494.628 C 196.901 494.056,198.445 493.321,198.807 492.994 C 199.168 492.667,199.633 492.400,199.840 492.400 C 201.292 492.400,205.234 487.588,205.973 484.913 C 206.521 482.934,206.577 337.582,206.032 335.697 C 203.677 327.568,186.613 321.636,174.200 324.632 M189.094 325.256 C 195.297 326.741,198.521 328.307,202.091 331.570 C 205.980 335.124,205.600 326.603,205.600 410.301 L 205.600 484.281 204.564 486.240 C 197.639 499.345,164.347 498.991,158.578 485.753 C 157.704 483.746,157.469 338.737,158.334 335.728 C 160.430 328.449,177.770 322.545,189.094 325.256 M114.400 347.565 C 107.801 348.346,99.821 353.128,97.911 357.446 C 97.006 359.489,96.956 484.424,97.859 486.800 C 98.507 488.507,102.041 492.400,102.942 492.400 C 103.159 492.400,103.621 492.638,103.969 492.929 C 109.590 497.634,135.090 497.652,140.431 492.955 C 140.779 492.650,141.199 492.400,141.364 492.400 C 142.250 492.400,145.308 489.260,146.203 487.430 L 147.225 485.341 147.113 421.770 L 147.000 358.200 145.477 355.923 C 140.986 349.212,128.605 345.882,114.400 347.565 M130.080 348.437 C 137.639 349.994,143.392 353.321,145.362 357.274 L 146.400 359.357 146.400 422.091 C 146.400 489.607,146.506 486.013,144.430 488.653 C 143.006 490.463,139.252 492.875,136.623 493.669 C 120.217 498.624,100.652 494.577,98.434 485.770 C 97.911 483.690,97.847 364.623,98.367 360.140 C 99.368 351.511,115.717 345.477,130.080 348.437 M350.065 349.605 C 348.814 350.173,344.934 353.824,336.155 362.696 C 329.458 369.463,322.875 376.080,321.525 377.400 C 320.175 378.720,314.555 384.366,309.035 389.947 C 303.516 395.528,293.271 405.788,286.269 412.747 C 270.189 428.729,268.595 431.130,271.002 435.746 C 271.331 436.376,271.600 437.160,271.600 437.487 C 271.600 439.228,277.160 447.840,280.840 451.800 C 281.454 452.460,282.289 453.360,282.697 453.800 C 285.846 457.197,292.963 462.000,294.846 462.000 C 295.173 462.000,295.611 462.156,295.820 462.347 C 297.603 463.974,303.180 464.428,305.716 463.153 C 307.203 462.405,314.003 456.134,318.582 451.287 C 321.613 448.080,364.189 405.159,366.800 402.679 C 368.230 401.321,370.930 398.606,372.800 396.645 C 374.670 394.683,377.935 391.320,380.055 389.170 C 385.487 383.663,386.326 380.391,383.789 374.600 C 383.500 373.940,383.139 372.950,382.986 372.400 C 382.147 369.381,370.898 356.000,369.200 356.000 C 369.048 356.000,368.428 355.573,367.821 355.052 C 362.270 350.282,354.098 347.775,350.065 349.605 M356.942 350.228 C 364.904 352.264,378.071 363.753,381.894 372.000 C 385.680 380.168,385.300 383.175,379.825 388.354 C 378.519 389.589,376.599 391.500,375.557 392.600 C 374.516 393.700,361.545 406.783,346.732 421.672 C 331.919 436.562,317.010 451.559,313.600 455.000 C 305.986 462.681,305.500 463.010,301.800 462.970 C 291.575 462.861,275.283 448.012,271.888 435.706 C 270.302 429.956,270.210 430.094,286.553 413.766 C 294.059 406.268,311.212 389.028,324.671 375.456 C 352.679 347.211,350.821 348.663,356.942 350.228 M57.958 388.576 C 57.861 388.672,56.706 388.779,55.391 388.813 C 48.577 388.988,40.258 392.419,38.514 395.773 C 37.799 397.147,37.406 484.524,38.098 488.098 C 38.613 490.758,41.331 493.120,45.316 494.369 C 46.902 494.866,48.673 495.449,49.251 495.665 C 50.352 496.075,51.580 496.178,60.400 496.601 C 72.840 497.198,84.347 494.265,86.833 489.864 L 87.773 488.200 87.787 443.200 C 87.803 390.657,88.186 394.640,82.882 392.128 C 77.656 389.653,59.472 387.061,57.958 388.576 M73.600 390.191 C 81.052 391.666,84.851 393.510,86.057 396.235 C 87.210 398.843,87.051 487.947,85.890 489.719 C 80.347 498.176,43.831 497.769,39.401 489.201 C 38.324 487.118,38.513 398.130,39.599 396.001 C 42.339 390.630,60.312 387.559,73.600 390.191 M15.684 519.958 C 14.941 521.179,14.629 605.171,15.358 607.469 C 15.924 609.252,16.976 609.344,36.959 609.373 C 56.502 609.401,69.830 608.818,73.200 607.788 C 74.190 607.486,75.900 606.947,77.000 606.591 C 78.100 606.235,79.450 605.840,80.000 605.712 C 82.639 605.100,88.021 600.761,90.535 597.217 C 94.566 591.537,95.569 588.352,98.180 572.943 C 99.462 565.379,98.899 556.283,96.438 544.800 C 95.962 542.582,93.686 536.827,92.945 535.969 C 92.645 535.621,92.400 535.212,92.400 535.060 C 92.400 534.610,88.566 529.938,86.712 528.129 C 83.840 525.326,76.165 521.215,73.200 520.892 C 72.210 520.784,71.177 520.518,70.904 520.302 C 69.807 519.432,62.333 519.104,39.903 518.941 L 16.407 518.770 15.684 519.958 M259.600 519.628 C 250.311 520.001,248.201 520.488,240.600 524.016 C 238.840 524.833,236.831 526.019,236.136 526.651 C 235.441 527.283,234.451 528.175,233.936 528.633 C 217.590 543.179,217.927 585.979,234.502 600.441 C 237.862 603.373,243.543 606.798,245.048 606.800 C 245.294 606.800,246.644 607.192,248.048 607.671 C 251.140 608.727,293.024 609.376,294.216 608.387 C 294.988 607.746,295.082 594.042,294.320 593.280 C 293.965 592.925,290.176 592.797,279.820 592.787 C 255.300 592.764,249.356 590.893,246.191 582.200 C 245.790 581.100,245.330 580.020,245.168 579.800 C 244.084 578.326,242.686 565.313,243.041 560.000 C 244.476 538.542,249.639 535.200,281.355 535.200 L 294.385 535.200 294.607 534.300 C 295.361 531.239,294.601 520.223,293.600 519.717 C 292.476 519.149,272.807 519.097,259.600 519.628 M315.825 519.513 C 309.601 519.661,310.000 519.126,310.000 527.317 C 310.000 536.563,308.409 535.650,323.967 535.333 C 333.422 535.140,336.843 535.195,337.509 535.551 L 338.400 536.028 338.400 571.765 C 338.400 604.375,338.457 607.550,339.055 608.046 C 339.910 608.755,355.540 609.075,356.785 608.408 C 357.596 607.974,357.600 607.776,357.600 572.235 C 357.600 544.126,357.707 536.412,358.100 536.097 C 358.395 535.861,364.172 535.579,372.200 535.409 C 380.457 535.235,385.996 534.961,386.300 534.712 C 386.988 534.148,387.017 520.182,386.331 519.757 C 385.885 519.482,325.896 519.274,315.825 519.513 M70.000 520.774 C 84.534 524.331,94.305 534.472,96.234 548.000 C 96.376 548.990,96.814 551.780,97.209 554.200 C 97.981 558.928,97.986 569.397,97.219 573.400 C 97.008 574.500,96.635 576.840,96.390 578.600 C 94.280 593.741,86.183 604.226,74.776 606.588 C 74.019 606.745,72.590 607.158,71.600 607.506 C 69.192 608.353,17.576 608.810,16.592 607.993 C 16.076 607.565,16.000 601.897,16.000 563.938 L 16.000 520.374 16.900 519.992 C 19.078 519.068,65.842 519.757,70.000 520.774 M189.614 520.374 C 188.849 521.803,189.058 607.401,189.829 608.171 C 190.723 609.065,207.228 609.115,208.117 608.226 C 208.742 607.601,208.868 521.081,208.246 520.074 C 207.673 519.147,190.119 519.430,189.614 520.374 M207.520 520.480 C 208.410 521.370,208.193 607.546,207.300 607.913 C 205.971 608.458,190.891 608.252,190.320 607.680 C 189.481 606.841,189.560 520.922,190.400 520.392 C 191.321 519.809,206.930 519.890,207.520 520.480 M293.600 520.392 C 294.418 520.909,294.491 533.269,293.681 534.080 C 293.281 534.480,289.506 534.657,277.281 534.849 C 256.775 535.171,253.198 535.925,248.277 540.964 C 241.351 548.057,240.480 572.851,246.745 584.575 C 250.546 591.687,255.961 593.208,278.506 593.494 C 292.933 593.678,293.223 593.697,293.806 594.530 C 294.591 595.651,294.670 606.306,293.900 607.280 C 293.324 608.008,262.552 608.577,254.200 608.014 C 238.502 606.956,226.684 595.745,223.990 579.355 C 223.741 577.840,223.281 575.303,222.968 573.717 C 222.321 570.432,222.220 561.048,222.793 557.400 C 223.000 556.080,223.449 553.231,223.790 551.069 C 226.510 533.825,236.957 522.863,253.000 520.417 C 255.981 519.963,292.885 519.940,293.600 520.392 M386.299 526.800 C 386.355 530.524,386.231 533.661,386.014 534.000 C 385.689 534.507,383.530 534.631,372.029 534.800 C 359.665 534.982,358.362 535.065,357.714 535.714 C 357.043 536.386,356.988 538.556,356.800 572.107 L 356.600 607.787 355.000 608.093 C 351.792 608.706,339.632 608.007,339.191 607.183 C 338.945 606.723,338.800 593.418,338.800 571.288 C 338.800 538.048,338.761 536.089,338.086 535.478 C 337.466 534.917,335.666 534.817,324.319 534.716 C 317.140 534.652,311.116 534.450,310.933 534.268 C 310.371 533.707,310.271 521.238,310.823 520.573 C 311.234 520.077,316.538 520.010,348.751 520.098 L 386.200 520.200 386.299 526.800 M44.200 535.096 C 36.505 535.194,35.337 535.293,34.900 535.881 C 34.113 536.939,34.178 591.143,34.968 592.224 C 35.700 593.224,57.164 593.415,61.400 592.458 C 69.353 590.661,74.352 585.364,75.798 577.200 C 75.934 576.430,76.327 574.630,76.670 573.200 C 78.785 564.381,76.594 548.797,72.368 542.600 C 69.116 537.832,60.759 534.328,54.000 534.899 C 53.450 534.946,49.040 535.034,44.200 535.096 M63.400 536.951 C 69.131 539.594,70.813 541.086,72.926 545.400 C 78.245 556.259,77.141 579.208,70.971 586.031 C 70.657 586.379,70.394 586.829,70.387 587.031 C 70.365 587.681,66.095 590.397,65.088 590.402 C 64.820 590.404,64.138 590.646,63.573 590.941 C 63.009 591.235,62.036 591.605,61.412 591.761 C 60.052 592.102,37.517 592.095,36.154 591.753 L 35.200 591.513 35.200 564.177 C 35.200 538.570,35.244 536.813,35.900 536.416 C 37.245 535.601,61.496 536.073,63.400 536.951 M133.400 542.459 C 131.860 542.892,129.931 543.416,129.114 543.622 C 119.679 546.006,109.312 556.745,107.594 565.912 C 107.400 566.950,107.059 568.610,106.838 569.600 C 106.341 571.819,106.307 580.822,106.787 583.000 C 109.308 594.437,114.443 602.097,122.000 605.691 C 126.363 607.766,127.861 608.400,128.398 608.400 C 128.661 608.400,130.114 608.776,131.627 609.236 C 135.388 610.378,149.241 610.241,152.800 609.027 C 163.855 605.253,170.638 599.327,173.798 590.681 C 174.376 589.096,175.145 587.170,175.506 586.400 C 177.317 582.533,176.443 567.605,174.101 562.400 C 167.662 548.090,157.348 541.527,141.469 541.636 C 137.531 541.663,135.493 541.871,133.400 542.459 M151.267 543.631 C 160.166 545.561,167.894 551.449,171.589 559.114 C 172.301 560.591,173.044 562.110,173.239 562.489 C 175.281 566.459,176.282 578.859,174.998 584.302 C 172.586 594.531,168.158 600.472,159.000 605.761 C 153.419 608.984,138.994 610.838,133.514 609.036 C 132.571 608.727,131.170 608.351,130.400 608.202 C 114.120 605.055,103.961 586.899,107.974 568.121 C 111.990 549.330,130.158 539.052,151.267 543.631 M138.200 556.405 C 129.294 557.766,125.458 563.785,125.458 576.400 C 125.458 590.134,130.424 596.015,142.011 596.004 C 151.902 595.995,157.080 590.109,157.851 578.000 C 158.640 565.596,153.633 557.614,144.302 556.402 C 141.054 555.980,140.985 555.980,138.200 556.405 M145.089 557.600 C 153.375 558.676,157.020 564.436,156.986 576.400 C 156.951 588.564,152.651 594.133,142.246 595.491 C 139.169 595.893,133.024 593.632,130.540 591.185 C 127.251 587.943,125.578 580.472,126.423 572.800 C 127.799 560.315,133.053 556.036,145.089 557.600 " stroke="none" fill="#8cbfa8" fill-rule="evenodd"></path><path id="path4" d="M212.000 23.162 C 211.670 23.359,209.825 23.712,207.901 23.946 C 205.977 24.179,204.053 24.557,203.627 24.785 C 203.201 25.013,202.425 25.200,201.902 25.200 C 201.057 25.200,197.196 26.083,193.200 27.190 C 192.430 27.403,189.910 28.045,187.600 28.617 C 182.344 29.919,180.881 30.374,173.200 33.100 C 164.467 36.199,164.546 36.169,161.000 37.802 C 159.240 38.613,157.170 39.511,156.400 39.797 C 155.052 40.298,147.322 43.893,143.600 45.749 C 137.897 48.594,130.812 52.549,127.780 54.579 C 126.449 55.471,124.205 56.920,122.793 57.800 C 119.063 60.124,112.821 64.355,111.200 65.658 C 110.430 66.276,108.424 67.821,106.743 69.091 C 88.803 82.638,74.610 97.365,57.676 120.000 C 50.151 130.059,36.787 153.866,32.640 164.600 C 32.045 166.140,31.393 167.760,31.191 168.200 C 29.882 171.054,27.089 178.857,24.174 187.800 C 23.816 188.900,23.420 190.070,23.295 190.400 C 23.084 190.954,22.346 193.886,20.626 201.000 C 20.254 202.540,19.692 204.790,19.378 206.000 C 18.238 210.396,16.405 221.732,16.670 222.747 C 16.978 223.924,17.683 223.989,30.284 223.995 C 43.856 224.001,43.106 224.236,43.962 219.704 C 45.895 209.466,46.924 204.771,47.402 203.997 C 47.560 203.741,47.921 202.512,48.204 201.266 C 50.938 189.231,59.993 167.446,67.801 154.117 C 75.678 140.669,83.651 129.352,92.000 119.764 C 100.212 110.333,115.996 95.381,122.834 90.554 C 123.805 89.868,127.120 87.463,130.200 85.210 C 134.930 81.750,145.893 74.800,146.622 74.800 C 146.744 74.800,148.519 73.815,150.565 72.610 C 152.612 71.406,155.101 70.071,156.098 69.644 C 157.094 69.217,158.605 68.428,159.455 67.892 C 160.305 67.356,161.450 66.775,162.000 66.602 C 162.550 66.429,164.620 65.517,166.600 64.575 C 172.613 61.716,183.595 57.715,189.600 56.196 C 190.810 55.889,192.610 55.371,193.600 55.044 C 197.932 53.612,208.759 50.986,212.000 50.581 C 214.746 50.238,216.227 49.500,216.544 48.316 C 216.869 47.101,216.803 27.554,216.465 25.000 L 216.200 23.000 214.400 22.902 C 213.410 22.848,212.330 22.965,212.000 23.162 M215.740 26.861 C 216.415 36.364,215.920 48.580,214.843 49.022 C 213.494 49.577,209.741 50.372,208.400 50.388 C 207.630 50.397,206.537 50.646,205.972 50.941 C 205.407 51.236,203.967 51.607,202.772 51.765 C 201.577 51.923,199.700 52.321,198.600 52.649 C 184.738 56.790,180.473 58.159,178.668 59.044 C 178.045 59.350,177.262 59.600,176.928 59.600 C 176.334 59.600,175.068 60.099,171.756 61.637 C 170.852 62.056,169.890 62.400,169.618 62.400 C 169.346 62.400,168.646 62.658,168.062 62.973 C 166.554 63.787,160.904 66.400,160.651 66.400 C 160.535 66.400,159.640 66.940,158.662 67.600 C 157.684 68.260,156.640 68.803,156.342 68.807 C 155.768 68.814,153.643 69.887,148.529 72.754 C 146.808 73.719,144.410 75.045,143.200 75.700 C 141.990 76.355,140.010 77.531,138.800 78.314 C 134.406 81.157,129.373 84.566,128.200 85.493 C 127.540 86.015,125.162 87.799,122.916 89.458 C 115.109 95.222,100.075 109.146,94.272 115.985 C 92.692 117.847,91.130 119.660,90.800 120.015 C 86.807 124.311,85.134 126.439,78.581 135.562 C 74.893 140.695,70.572 147.398,68.628 151.000 C 68.034 152.100,67.121 153.720,66.599 154.600 C 64.501 158.135,55.610 176.482,55.587 177.322 C 55.580 177.585,55.310 178.149,54.987 178.576 C 54.664 179.004,54.399 179.634,54.398 179.976 C 54.396 180.319,54.148 181.074,53.845 181.654 C 53.542 182.234,52.892 184.010,52.400 185.600 C 51.908 187.190,51.258 188.966,50.955 189.546 C 50.652 190.126,50.404 190.845,50.402 191.143 C 50.401 191.442,49.770 193.550,49.000 195.827 C 48.230 198.105,47.600 200.389,47.600 200.904 C 47.600 201.419,47.422 202.018,47.205 202.235 C 46.629 202.811,44.116 213.347,43.804 216.496 C 43.657 217.978,43.392 219.281,43.214 219.391 C 43.036 219.501,42.771 220.231,42.624 221.014 C 42.206 223.239,41.638 223.325,29.233 223.028 C 23.202 222.883,18.117 222.672,17.933 222.559 C 17.476 222.276,17.545 218.197,18.043 216.000 C 18.268 215.010,18.700 212.940,19.004 211.400 C 19.791 207.416,20.318 205.178,21.596 200.400 C 22.214 198.090,22.840 195.480,22.988 194.600 C 23.308 192.694,24.134 190.061,25.670 186.051 C 26.292 184.429,26.801 182.809,26.802 182.451 C 26.804 182.093,27.057 181.317,27.365 180.727 C 27.673 180.137,28.050 179.083,28.203 178.385 C 28.454 177.244,28.913 176.052,30.587 172.200 C 30.874 171.540,31.758 169.290,32.551 167.200 C 34.090 163.149,34.314 162.663,38.914 153.400 C 43.074 145.021,46.058 139.535,48.813 135.200 C 49.022 134.870,49.740 133.610,50.408 132.400 C 51.075 131.190,52.419 129.030,53.393 127.600 C 54.368 126.170,55.758 124.132,56.483 123.072 C 57.207 122.012,58.025 120.900,58.300 120.601 C 58.575 120.302,58.800 119.962,58.800 119.846 C 58.800 119.607,60.355 117.271,61.103 116.387 C 61.376 116.064,62.225 115.080,62.990 114.200 C 63.755 113.320,64.386 112.393,64.391 112.140 C 64.396 111.887,64.985 111.076,65.700 110.338 C 67.361 108.623,71.218 104.165,72.002 103.053 C 74.536 99.460,94.586 79.673,99.800 75.619 C 101.340 74.422,102.893 73.149,103.251 72.790 C 103.610 72.431,106.040 70.532,108.651 68.569 C 111.263 66.606,113.490 64.904,113.600 64.787 C 113.710 64.670,114.761 63.965,115.937 63.222 C 117.112 62.478,118.282 61.668,118.537 61.421 C 118.791 61.175,120.497 60.079,122.326 58.987 C 124.155 57.894,125.955 56.819,126.326 56.597 C 126.697 56.376,128.260 55.378,129.800 54.380 C 131.340 53.382,133.050 52.350,133.600 52.087 C 134.150 51.823,136.220 50.701,138.200 49.593 C 140.180 48.485,142.970 47.026,144.400 46.350 C 145.830 45.674,149.182 44.059,151.849 42.761 C 154.516 41.462,156.834 40.400,156.999 40.400 C 157.365 40.400,163.388 37.778,164.862 36.977 C 165.446 36.660,166.138 36.400,166.401 36.400 C 166.664 36.400,167.446 36.138,168.140 35.818 C 169.676 35.108,172.577 34.058,174.200 33.624 C 174.860 33.448,175.850 33.115,176.400 32.885 C 176.950 32.656,179.560 31.805,182.200 30.995 C 184.840 30.185,187.540 29.340,188.200 29.117 C 188.860 28.894,190.300 28.560,191.400 28.374 C 192.500 28.187,195.465 27.487,197.988 26.818 C 200.512 26.148,202.942 25.597,203.388 25.594 C 203.835 25.591,204.920 25.329,205.800 25.012 C 206.680 24.695,208.300 24.413,209.400 24.387 C 210.500 24.360,212.120 24.101,213.000 23.811 C 213.880 23.521,214.798 23.265,215.040 23.242 C 215.314 23.216,215.578 24.579,215.740 26.861 M210.800 83.660 C 188.328 89.345,171.879 96.226,156.272 106.472 C 154.991 107.312,153.821 108.004,153.672 108.009 C 153.412 108.018,150.723 109.818,146.546 112.780 C 132.806 122.526,112.961 142.691,105.512 154.478 C 104.913 155.425,104.056 156.650,103.607 157.200 C 99.723 161.960,92.429 175.009,87.175 186.600 C 86.838 187.344,86.010 189.606,81.906 201.000 C 79.668 207.215,78.484 211.218,77.588 215.600 C 77.160 217.690,76.643 219.977,76.438 220.683 C 75.504 223.902,75.775 223.988,86.910 223.995 L 95.620 224.000 96.038 222.900 C 96.268 222.295,96.992 219.910,97.647 217.600 C 100.155 208.753,100.430 207.899,103.034 200.887 C 112.469 175.477,132.186 148.842,153.330 132.941 C 155.129 131.589,157.500 129.789,158.600 128.941 C 165.266 123.802,179.789 115.456,187.000 112.620 C 188.540 112.014,189.971 111.357,190.180 111.159 C 190.389 110.962,190.839 110.799,191.180 110.798 C 191.521 110.796,192.294 110.538,192.897 110.223 C 193.500 109.908,195.210 109.262,196.697 108.787 C 198.184 108.312,200.030 107.678,200.800 107.377 C 202.981 106.524,210.024 104.468,211.800 104.165 C 216.693 103.330,216.800 103.088,216.800 92.856 C 216.800 81.943,216.912 82.114,210.800 83.660 M215.741 86.100 C 216.064 88.795,216.066 92.798,215.745 98.042 L 215.490 102.209 213.245 102.885 C 212.010 103.257,209.551 103.922,207.781 104.363 C 206.010 104.803,204.030 105.441,203.381 105.779 C 202.731 106.118,201.808 106.396,201.329 106.398 C 200.849 106.399,200.217 106.640,199.923 106.934 C 199.630 107.227,198.614 107.592,197.665 107.743 C 196.717 107.895,194.825 108.525,193.461 109.143 C 192.097 109.762,190.490 110.391,189.890 110.542 C 189.291 110.692,188.800 110.992,188.800 111.208 C 188.800 111.423,188.423 111.600,187.962 111.600 C 187.501 111.600,186.646 111.841,186.062 112.135 C 183.051 113.652,181.353 114.402,180.929 114.401 C 180.669 114.400,180.219 114.625,179.929 114.900 C 179.638 115.175,177.960 116.114,176.200 116.987 C 174.440 117.860,172.254 119.075,171.342 119.687 C 170.430 120.299,169.589 120.800,169.474 120.800 C 168.970 120.800,159.995 126.585,159.609 127.158 C 159.494 127.329,157.663 128.713,155.540 130.234 C 151.922 132.827,150.486 133.980,145.427 138.353 C 141.046 142.140,134.577 148.694,130.800 153.172 C 129.810 154.345,128.507 155.867,127.905 156.553 C 126.924 157.670,125.645 159.369,119.183 168.135 C 115.747 172.797,106.400 189.624,106.400 191.147 C 106.400 191.338,105.770 192.725,105.000 194.228 C 104.230 195.732,103.594 197.240,103.587 197.581 C 103.580 197.921,103.310 198.549,102.987 198.976 C 102.664 199.404,102.400 200.079,102.400 200.478 C 102.400 200.877,102.040 201.875,101.600 202.696 C 101.160 203.516,100.800 204.395,100.800 204.648 C 100.800 204.901,100.531 205.624,100.202 206.254 C 99.874 206.884,99.604 207.859,99.602 208.420 C 99.601 208.981,99.441 209.611,99.247 209.820 C 99.053 210.029,98.496 211.640,98.010 213.400 C 97.524 215.160,96.882 217.320,96.585 218.200 C 96.287 219.080,95.926 220.463,95.782 221.272 L 95.521 222.745 92.945 223.021 C 89.357 223.405,78.098 223.058,77.588 222.548 C 77.162 222.122,78.804 212.702,79.552 211.277 C 79.747 210.905,80.038 209.790,80.199 208.800 C 80.359 207.810,80.715 206.550,80.990 206.000 C 81.546 204.886,82.186 203.096,82.991 200.400 C 85.641 191.522,93.993 173.403,99.047 165.563 C 99.672 164.594,100.367 163.497,100.592 163.126 C 100.816 162.755,101.527 161.585,102.171 160.526 C 102.815 159.467,104.210 157.464,105.271 156.076 C 106.332 154.688,107.200 153.293,107.200 152.976 C 107.200 152.659,107.345 152.400,107.523 152.400 C 107.700 152.400,108.672 151.275,109.683 149.900 C 110.693 148.525,111.943 146.940,112.460 146.378 C 112.977 145.815,114.698 143.822,116.284 141.948 C 119.553 138.085,131.502 126.181,135.960 122.346 C 139.601 119.214,150.298 110.800,150.640 110.800 C 150.776 110.800,151.997 110.025,153.351 109.079 C 154.705 108.132,156.128 107.237,156.512 107.089 C 156.896 106.942,158.423 106.032,159.905 105.068 C 161.387 104.104,164.130 102.527,166.000 101.565 C 167.870 100.603,169.490 99.722,169.600 99.608 C 170.244 98.939,184.552 92.591,187.000 91.888 C 187.440 91.762,189.600 91.012,191.800 90.222 C 194.000 89.432,196.610 88.536,197.600 88.230 C 198.590 87.925,200.390 87.370,201.600 86.997 C 202.810 86.625,204.859 86.080,206.152 85.787 C 207.446 85.494,208.976 85.070,209.552 84.845 C 210.810 84.356,212.104 84.128,214.044 84.054 L 215.489 84.000 215.741 86.100 M212.600 130.191 C 207.510 131.468,201.846 133.719,193.200 137.898 C 191.110 138.908,188.500 140.116,187.400 140.582 C 186.300 141.049,183.568 142.638,181.328 144.115 C 179.089 145.592,177.149 146.800,177.017 146.800 C 176.886 146.800,173.700 149.167,169.937 152.060 C 148.439 168.590,132.904 190.555,124.352 216.512 C 121.786 224.301,121.543 224.000,130.400 224.000 L 136.735 224.000 137.531 222.700 C 137.969 221.985,138.539 220.602,138.798 219.627 C 140.024 215.019,143.919 206.021,146.740 201.282 C 147.433 200.118,148.000 199.079,148.000 198.974 C 148.000 198.380,154.495 188.640,156.385 186.400 C 157.406 185.190,158.723 183.480,159.311 182.600 C 160.454 180.892,166.666 174.408,171.600 169.773 C 176.353 165.309,185.200 158.675,189.368 156.451 C 190.578 155.805,192.071 154.935,192.684 154.517 C 194.724 153.128,208.133 146.800,209.036 146.800 C 209.331 146.800,210.164 146.541,210.886 146.224 C 211.609 145.908,212.718 145.539,213.351 145.404 C 213.984 145.269,215.041 144.620,215.700 143.961 L 216.898 142.764 216.729 136.819 C 216.514 129.254,216.490 129.214,212.600 130.191 M215.743 133.259 C 216.595 141.409,215.578 144.800,212.281 144.800 C 212.010 144.800,211.116 145.160,210.296 145.600 C 209.475 146.040,208.433 146.400,207.981 146.400 C 207.528 146.400,206.493 146.756,205.679 147.192 C 204.866 147.627,202.850 148.624,201.200 149.408 C 199.550 150.191,197.930 150.993,197.600 151.191 C 197.270 151.389,196.010 152.019,194.800 152.590 C 193.590 153.161,192.060 153.979,191.400 154.408 C 190.740 154.837,189.840 155.379,189.400 155.611 C 188.013 156.345,184.062 158.768,183.400 159.291 C 183.180 159.464,180.750 161.297,178.000 163.362 C 172.743 167.311,161.135 178.462,159.000 181.613 C 158.340 182.587,156.720 184.760,155.400 186.443 C 153.120 189.348,150.512 193.166,149.199 195.522 C 148.869 196.115,148.158 197.320,147.621 198.200 C 145.826 201.138,144.805 203.085,142.272 208.400 C 140.246 212.650,139.600 214.231,139.600 214.937 C 139.600 215.276,139.434 215.655,139.231 215.781 C 139.028 215.906,138.744 216.592,138.601 217.305 C 138.044 220.074,136.682 222.798,135.826 222.857 C 133.272 223.032,124.145 222.671,123.841 222.383 C 123.490 222.049,124.567 217.422,125.188 216.600 C 125.354 216.380,125.612 215.687,125.762 215.060 C 126.288 212.864,131.700 199.768,132.812 198.000 C 133.020 197.670,133.482 196.860,133.840 196.200 C 134.396 195.172,138.987 187.298,140.208 185.276 C 142.044 182.236,147.612 174.735,149.023 173.400 C 149.255 173.180,149.973 172.280,150.617 171.400 C 152.769 168.462,163.350 158.152,167.400 155.046 C 169.600 153.360,171.815 151.629,172.322 151.201 C 173.161 150.491,175.678 148.804,182.135 144.623 C 184.154 143.315,192.929 138.827,197.200 136.918 C 197.970 136.573,199.320 135.970,200.200 135.576 C 205.479 133.217,212.427 130.867,214.243 130.827 C 215.475 130.800,215.488 130.822,215.743 133.259 M213.600 173.766 C 211.213 174.670,207.102 176.727,204.800 178.169 C 203.590 178.927,201.700 180.099,200.600 180.774 C 187.962 188.528,176.010 201.928,168.980 216.227 C 164.993 224.337,164.954 224.242,172.168 223.942 C 176.072 223.779,175.816 223.977,178.544 218.999 C 180.239 215.905,183.339 211.175,186.428 206.973 C 191.454 200.134,202.527 190.627,209.953 186.775 C 216.755 183.247,216.332 183.812,216.372 178.180 C 216.407 173.167,216.171 172.791,213.600 173.766 M215.514 178.486 L 215.400 182.572 213.800 183.641 C 211.899 184.911,208.191 187.025,206.832 187.613 C 206.027 187.962,204.608 188.920,201.400 191.283 C 201.180 191.445,200.522 191.987,199.938 192.489 C 199.354 192.990,198.004 194.120,196.938 195.000 C 195.872 195.880,194.370 197.245,193.600 198.033 C 188.991 202.752,186.425 205.573,185.112 207.367 C 184.294 208.485,183.471 209.583,183.284 209.806 C 183.097 210.030,182.421 211.110,181.783 212.206 C 181.145 213.303,180.467 214.380,180.277 214.600 C 180.088 214.820,178.912 216.710,177.666 218.800 L 175.400 222.600 171.300 222.714 C 167.837 222.810,167.200 222.733,167.200 222.216 C 167.200 221.703,172.105 211.787,173.408 209.665 C 175.389 206.439,176.383 205.102,181.901 198.239 C 184.141 195.453,190.261 189.412,192.754 187.527 C 197.129 184.218,200.249 181.965,200.800 181.718 C 201.130 181.571,202.218 180.898,203.218 180.225 C 207.029 177.657,213.436 174.414,214.714 174.406 C 215.614 174.400,215.626 174.462,215.514 178.486 M233.969 195.180 C 233.622 195.391,232.177 195.748,230.758 195.975 C 212.867 198.833,195.192 214.870,189.071 233.800 C 183.536 250.916,187.343 271.720,198.400 284.776 C 204.125 291.535,204.728 292.083,212.000 297.136 C 213.870 298.435,215.760 299.900,216.200 300.391 C 216.994 301.277,217.002 301.991,217.200 390.542 C 217.396 477.851,217.417 479.839,218.178 481.600 C 226.467 500.773,256.277 500.773,264.206 481.600 C 265.254 479.066,265.452 460.474,265.360 372.800 C 265.299 314.088,265.378 302.055,265.827 301.339 C 266.125 300.865,267.410 299.894,268.684 299.180 C 279.893 292.904,290.508 280.110,294.221 268.400 C 294.605 267.190,295.142 265.570,295.415 264.800 C 297.484 258.968,297.477 241.591,295.402 236.000 C 295.117 235.230,294.683 233.856,294.439 232.946 C 290.536 218.398,275.266 203.113,259.268 197.741 C 252.077 195.326,236.355 193.735,233.969 195.180 M248.135 195.800 C 249.402 196.130,250.794 196.400,251.228 196.400 C 254.881 196.400,266.326 201.059,272.563 205.086 C 277.980 208.583,286.616 218.225,289.683 224.200 C 290.248 225.300,291.135 227.010,291.655 228.000 C 292.175 228.990,293.026 231.150,293.547 232.800 C 294.068 234.450,294.732 236.340,295.024 237.000 C 295.315 237.660,295.631 239.550,295.725 241.200 C 295.820 242.850,296.113 245.646,296.376 247.414 C 296.774 250.084,296.749 251.389,296.228 255.128 C 295.882 257.603,295.600 260.485,295.600 261.534 C 295.600 262.582,295.436 263.611,295.237 263.820 C 295.037 264.029,294.382 265.640,293.781 267.400 C 293.181 269.160,292.284 271.410,291.787 272.400 C 291.291 273.390,290.336 275.324,289.665 276.697 C 288.230 279.633,285.078 284.185,283.507 285.589 C 282.898 286.133,282.400 286.733,282.400 286.921 C 282.400 287.229,279.976 289.601,275.400 293.770 C 274.520 294.572,271.870 296.347,269.511 297.714 C 267.152 299.081,265.082 300.470,264.911 300.800 C 264.740 301.130,264.510 341.464,264.400 390.430 L 264.200 479.461 262.511 482.869 C 253.757 500.534,225.026 498.655,218.629 480.000 C 218.080 478.400,218.011 468.575,218.002 391.400 C 217.997 343.660,217.882 303.672,217.745 302.537 C 217.457 300.140,216.901 299.472,213.200 297.080 C 210.306 295.209,204.420 290.715,203.800 289.902 C 203.580 289.614,202.680 288.563,201.800 287.567 C 199.046 284.451,198.236 283.443,197.001 281.595 C 196.342 280.608,195.687 279.710,195.545 279.600 C 195.050 279.214,192.459 273.769,191.263 270.600 C 186.993 259.284,186.179 248.430,188.833 238.200 C 189.061 237.320,189.484 235.683,189.773 234.563 C 191.006 229.785,195.668 220.403,197.809 218.391 C 198.354 217.879,198.800 217.242,198.800 216.976 C 198.800 216.073,207.579 207.631,210.499 205.725 C 212.094 204.684,213.496 203.698,213.613 203.534 C 213.729 203.370,214.809 202.770,216.013 202.201 C 217.216 201.631,218.470 201.014,218.800 200.830 C 220.277 200.004,223.166 198.815,225.000 198.278 C 230.579 196.643,231.560 196.398,232.635 196.370 C 233.276 196.353,234.430 196.097,235.200 195.800 C 237.178 195.038,245.211 195.038,248.135 195.800 M234.800 201.169 C 234.030 201.342,231.967 201.789,230.216 202.163 C 228.465 202.536,226.845 202.987,226.616 203.165 C 226.387 203.342,225.611 203.599,224.892 203.735 C 218.083 205.026,206.348 214.062,201.067 222.080 C 198.468 226.027,195.600 231.461,195.600 232.438 C 195.600 232.821,195.346 233.645,195.035 234.268 C 192.819 238.705,191.417 249.997,192.363 255.777 C 193.371 261.935,194.528 266.688,195.177 267.337 C 195.410 267.570,195.600 268.051,195.600 268.406 C 195.600 273.923,211.737 292.746,216.104 292.325 L 217.400 292.200 217.512 286.648 C 217.602 282.135,217.505 280.915,216.994 280.135 C 215.991 278.604,215.572 279.453,216.415 281.309 C 217.186 283.007,217.508 288.611,216.953 290.679 C 215.587 295.775,200.816 279.623,196.160 267.941 C 183.229 235.494,210.760 198.141,245.200 201.405 C 282.796 204.968,302.681 244.647,283.084 276.999 C 279.337 283.185,269.146 292.649,266.600 292.307 C 265.377 292.143,265.186 283.768,266.359 281.780 C 266.900 280.864,266.999 280.400,266.676 280.292 C 264.167 279.456,263.361 292.520,265.863 293.479 C 266.455 293.707,268.873 292.618,270.177 291.537 C 270.410 291.344,271.784 290.307,273.232 289.231 C 280.540 283.802,288.258 271.844,289.773 263.600 C 289.915 262.830,290.202 261.480,290.410 260.600 C 294.283 244.271,287.518 223.526,274.886 212.999 C 269.752 208.720,262.686 204.522,259.400 203.798 C 258.740 203.652,257.660 203.296,257.000 203.006 C 253.151 201.313,239.265 200.164,234.800 201.169 M174.398 325.413 C 166.637 326.964,159.547 331.517,158.334 335.728 C 157.469 338.737,157.704 483.746,158.578 485.753 C 164.347 498.991,197.639 499.345,204.564 486.240 L 205.600 484.281 205.600 410.301 C 205.600 326.603,205.980 335.124,202.091 331.570 C 198.521 328.307,195.297 326.741,189.094 325.256 C 186.596 324.658,177.701 324.753,174.398 325.413 M192.800 327.177 C 194.890 327.894,196.870 328.711,197.200 328.993 C 197.530 329.275,198.160 329.617,198.600 329.753 C 199.740 330.106,203.382 333.618,204.151 335.105 C 205.191 337.117,205.142 483.156,204.100 485.462 C 198.412 498.054,163.970 497.947,159.171 485.323 C 158.660 483.980,158.674 336.784,159.185 335.441 C 159.636 334.253,162.304 331.579,164.647 329.967 C 170.986 325.606,184.357 324.281,192.800 327.177 M114.027 348.435 C 104.966 350.213,99.001 354.671,98.367 360.140 C 97.847 364.623,97.911 483.690,98.434 485.770 C 100.652 494.577,120.217 498.624,136.623 493.669 C 139.252 492.875,143.006 490.463,144.430 488.653 C 146.506 486.013,146.400 489.607,146.400 422.091 L 146.400 359.357 145.362 357.274 C 141.932 350.390,126.399 346.009,114.027 348.435 M130.359 349.418 C 131.987 349.758,133.607 350.182,133.959 350.361 C 134.312 350.541,135.206 350.802,135.946 350.943 C 138.374 351.404,143.385 355.060,144.454 357.150 L 145.400 359.000 145.400 422.200 C 145.400 492.255,145.617 486.453,142.896 489.001 C 132.067 499.139,100.371 495.725,99.003 484.272 C 98.867 483.133,98.811 454.390,98.878 420.400 L 99.000 358.600 100.200 356.830 C 101.300 355.208,104.490 352.490,105.369 352.427 C 105.571 352.412,106.021 352.157,106.369 351.860 C 109.286 349.364,123.275 347.940,130.359 349.418 M350.671 350.217 C 349.502 350.646,343.373 356.596,324.671 375.456 C 311.212 389.028,294.059 406.268,286.553 413.766 C 270.210 430.094,270.302 429.956,271.888 435.706 C 275.283 448.012,291.575 462.861,301.800 462.970 C 305.500 463.010,305.986 462.681,313.600 455.000 C 317.010 451.559,331.919 436.562,346.732 421.672 C 361.545 406.783,374.516 393.700,375.557 392.600 C 376.599 391.500,378.519 389.589,379.825 388.354 C 385.300 383.175,385.680 380.168,381.894 372.000 C 376.369 360.081,358.247 347.438,350.671 350.217 M360.097 352.134 C 368.230 355.981,382.400 370.602,382.400 375.145 C 382.400 375.531,382.664 376.196,382.987 376.624 C 383.737 377.615,383.821 382.976,383.100 383.817 C 382.825 384.138,374.410 392.642,364.400 402.716 C 354.390 412.789,345.017 422.284,343.572 423.815 C 342.126 425.347,336.006 431.479,329.972 437.442 C 323.937 443.405,316.570 450.782,313.600 453.837 C 306.222 461.424,304.918 462.400,302.157 462.400 C 300.212 462.400,293.090 460.093,292.400 459.240 C 292.290 459.104,291.480 458.526,290.600 457.956 C 287.944 456.236,281.408 450.197,279.788 447.967 C 278.179 445.753,276.966 444.170,276.748 444.000 C 275.447 442.985,272.000 434.360,272.000 432.118 C 272.000 429.846,273.914 427.691,292.690 408.820 C 303.317 398.139,320.547 380.792,330.977 370.271 C 349.799 351.286,349.956 351.140,351.871 350.859 C 354.533 350.468,357.571 350.939,360.097 352.134 M53.200 389.943 C 45.799 391.103,41.010 393.237,39.599 396.001 C 38.513 398.130,38.324 487.118,39.401 489.201 C 43.831 497.769,80.347 498.176,85.890 489.719 C 87.051 487.947,87.210 398.843,86.057 396.235 C 83.723 390.958,67.068 387.769,53.200 389.943 M67.400 390.018 C 68.280 390.237,70.446 390.578,72.213 390.775 C 78.087 391.430,83.864 393.888,85.135 396.274 C 85.796 397.516,85.804 487.515,85.142 488.967 C 84.495 490.388,82.183 491.864,79.526 492.553 C 78.276 492.877,76.296 493.414,75.126 493.747 C 65.718 496.421,47.146 494.810,42.400 490.908 C 42.070 490.637,41.467 490.176,41.060 489.884 C 40.653 489.592,40.197 488.643,40.046 487.776 C 39.530 484.812,39.825 397.789,40.355 396.508 C 40.885 395.229,44.900 392.407,46.200 392.400 C 46.640 392.397,47.517 392.125,48.149 391.796 C 48.781 391.466,50.941 390.992,52.949 390.742 C 54.957 390.491,57.500 390.157,58.600 389.999 C 61.635 389.564,65.613 389.573,67.400 390.018 M16.900 519.992 L 16.000 520.374 16.000 563.938 C 16.000 601.897,16.076 607.565,16.592 607.993 C 17.576 608.810,69.192 608.353,71.600 607.506 C 72.590 607.158,74.019 606.745,74.776 606.588 C 86.183 604.226,94.280 593.741,96.390 578.600 C 96.635 576.840,97.008 574.500,97.219 573.400 C 97.986 569.397,97.981 558.928,97.209 554.200 C 96.814 551.780,96.376 548.990,96.234 548.000 C 94.305 534.472,84.534 524.331,70.000 520.774 C 65.842 519.757,19.078 519.068,16.900 519.992 M66.000 520.798 C 71.490 521.866,73.655 522.437,76.000 523.434 C 77.430 524.043,78.799 524.689,79.042 524.871 C 79.285 525.053,80.365 525.668,81.442 526.238 C 86.563 528.950,94.380 539.963,94.402 544.497 C 94.404 544.774,94.650 545.470,94.950 546.045 C 95.250 546.620,95.628 548.510,95.789 550.245 C 95.950 551.980,96.334 554.721,96.641 556.335 C 97.353 560.075,97.350 568.624,96.636 572.000 C 96.333 573.430,95.965 576.040,95.817 577.800 C 95.670 579.560,95.395 581.360,95.206 581.800 C 95.017 582.240,94.471 583.950,93.992 585.600 C 93.514 587.250,92.780 589.355,92.361 590.278 C 91.943 591.201,91.600 592.131,91.600 592.345 C 91.600 592.558,91.465 592.793,91.300 592.867 C 91.135 592.940,90.294 594.080,89.430 595.400 C 86.759 599.484,82.928 602.665,78.600 604.395 C 77.940 604.658,76.862 605.144,76.204 605.474 C 75.546 605.803,74.106 606.236,73.004 606.436 C 71.902 606.635,70.190 606.971,69.200 607.182 C 68.164 607.402,56.582 607.573,41.900 607.583 L 16.400 607.600 16.400 564.633 C 16.400 541.001,16.509 521.381,16.643 521.033 C 16.918 520.314,62.403 520.098,66.000 520.798 M35.904 534.263 C 33.514 534.676,33.600 533.562,33.600 564.107 L 33.600 592.036 34.620 593.056 L 35.640 594.076 48.120 593.898 C 61.789 593.703,63.403 593.464,68.030 590.945 C 71.780 588.904,75.540 583.263,76.391 578.400 C 76.564 577.410,77.030 575.430,77.425 574.000 C 78.457 570.270,78.450 557.756,77.414 554.000 C 77.020 552.570,76.615 550.860,76.515 550.200 C 75.408 542.907,69.979 537.132,62.200 534.971 C 59.840 534.315,38.866 533.751,35.904 534.263 M59.081 535.395 C 69.362 536.856,73.914 541.575,76.449 553.400 C 77.538 558.479,77.656 569.086,76.670 573.200 C 76.327 574.630,75.934 576.430,75.798 577.200 C 74.352 585.364,69.353 590.661,61.400 592.458 C 57.164 593.415,35.700 593.224,34.968 592.224 C 34.178 591.143,34.113 536.939,34.900 535.881 C 35.337 535.293,36.505 535.194,44.200 535.096 C 49.040 535.034,53.450 534.946,54.000 534.899 C 54.550 534.853,56.837 535.076,59.081 535.395 M137.600 542.658 C 122.438 544.091,111.010 553.913,107.974 568.121 C 103.961 586.899,114.120 605.055,130.400 608.202 C 131.170 608.351,132.571 608.727,133.514 609.036 C 138.994 610.838,153.419 608.984,159.000 605.761 C 168.158 600.472,172.586 594.531,174.998 584.302 C 176.282 578.859,175.281 566.459,173.239 562.489 C 173.044 562.110,172.301 560.591,171.589 559.114 C 166.156 547.843,152.532 541.247,137.600 542.658 M148.354 544.029 C 152.682 544.730,158.987 546.735,159.600 547.605 C 159.710 547.761,160.363 548.177,161.052 548.529 C 164.306 550.196,169.507 556.189,171.228 560.253 C 171.681 561.324,172.210 562.560,172.403 563.000 C 175.419 569.859,175.391 582.795,172.345 590.000 C 170.252 594.950,164.597 602.400,162.932 602.400 C 162.661 602.400,162.296 602.625,162.120 602.900 C 161.832 603.350,157.284 605.728,154.200 607.040 C 153.540 607.321,152.055 607.669,150.900 607.813 C 149.746 607.957,148.700 608.238,148.577 608.437 C 148.268 608.937,134.265 608.905,133.764 608.404 C 133.546 608.186,132.475 607.897,131.384 607.761 C 129.400 607.514,128.064 607.006,123.217 604.653 C 116.404 601.347,111.936 595.444,108.949 585.800 C 107.293 580.458,108.295 564.875,110.439 562.620 C 110.637 562.411,110.800 561.952,110.800 561.599 C 110.800 560.614,114.520 555.255,116.885 552.834 C 123.845 545.709,136.634 542.130,148.354 544.029 M137.873 555.648 C 133.351 556.236,127.600 559.899,127.600 562.191 C 127.600 562.526,127.462 562.800,127.293 562.800 C 126.091 562.800,124.422 570.597,124.408 576.271 C 124.384 586.223,127.000 591.870,133.149 595.137 C 140.294 598.934,151.743 596.766,154.664 591.064 C 155.020 590.369,155.434 589.710,155.583 589.600 C 159.887 586.433,159.581 569.063,155.094 561.800 C 152.096 556.947,145.634 554.638,137.873 555.648 M144.302 556.402 C 153.633 557.614,158.640 565.596,157.851 578.000 C 157.080 590.109,151.902 595.995,142.011 596.004 C 130.424 596.015,125.458 590.134,125.458 576.400 C 125.458 563.785,129.294 557.766,138.200 556.405 C 140.985 555.980,141.054 555.980,144.302 556.402 " stroke="none" fill="#6aac8e" fill-rule="evenodd"></path></g></svg>